<svg xmlns="http://www.w3.org/2000/svg" viewBox="0 0 407.22 60"><defs><style>.cls-1{fill:#c61010;}.cls-2{fill:#003e5f;}</style></defs><title>header_logo_1</title><g id="レイヤー_2" data-name="レイヤー 2"><g id="レイヤー_1-2" data-name="レイヤー 1"><rect class="cls-1" x="218.18" y="9.55" width="2.73" height="40.91"/><path class="cls-2" d="M97.48,5.59a19.13,19.13,0,0,1,2.43,4.1.4.4,0,0,0,.64.16,6.33,6.33,0,0,0,1.78-2,.59.59,0,0,0,0-.5c-.53-1.11-2.76-2.61-3.93-3.16a6.43,6.43,0,0,0-2.31-.58c-.24,0-.35.2-.19.33A20.82,20.82,0,0,1,97.48,5.59Zm-3,7.32A19.37,19.37,0,0,1,96.87,17a.41.41,0,0,0,.65.17,6.56,6.56,0,0,0,1.77-2,.62.62,0,0,0,0-.5c-.53-1.11-2.76-2.62-3.94-3.16A6.46,6.46,0,0,0,93,11c-.24,0-.35.2-.2.33A22.73,22.73,0,0,1,94.44,12.91ZM98.69,25c1.49-7.16,5.55-13.2,5.65-13.94,0,0-.15-.14-.26-.14s-.19.11-.45.53c-1.69,2.89-3.53,6-5.21,8.65-2.66,4.31-3.11,4.52-3.86,4.84-.27.12-1.5.23-2,.35-.22.05-.28.16-.15.26a8.21,8.21,0,0,0,1,.43,13.22,13.22,0,0,1,1.48.7s1.17,4.91,1.76,7.3c.18.72.67.46,1,.29.1-.05,2.06-2.1,2.12-2.72C99.91,30.78,98.23,27.22,98.69,25Zm30.09,9.21c-4.64-2.95-13.25-8.18-14.38-17.06,0-.07,0-.24.22-.24h8.91a.47.47,0,0,0,.52-.46c0-.6,0-10.57,0-10.82a.42.42,0,0,0-.43-.41c-1.56-.06-5.72,0-6.77,0H107c-.29,0-.51.09-.49.39s0,.38,0,1.11c.06,1.48.13,2.28.13,5.36,0,7.23-.22,15-7.25,22.85-.13.15-.13.25-.08.3a.29.29,0,0,0,.31,0A14.37,14.37,0,0,0,104.82,31c3.94-5.25,4.81-8.39,5.25-13.8l.16-3.21c0-.86-.06-6.33-.06-7.29,0-.38,0-.42.46-.42h9.26c.34,0,.39.08.39.38,0,.86,0,8.47,0,8.93,0,.29-.12.31-.57.31h-5.93c-.22,0-.34,0-.36.1a2.54,2.54,0,0,0,0,.37c0,.27,0,.42,0,1a25.54,25.54,0,0,0,8.55,17.48,1,1,0,0,0,1,.31,17.81,17.81,0,0,1,5.81-.35C129.13,34.79,129.13,34.58,128.78,34.25Z"/><path class="cls-2" d="M204.76,23.88c-.83-.71-2.33-2-2.93-2.41-.41-.31-.56-.21-.72,0s-.65.74-1,1.21-.54.68-.76.68H190c-.25,0-.29-.07-.29-.44v-.44c0-.37,0-1.09,0-1.72.08,0-.08,0,.09,0,2.68-.82,6.58-2.79,8.13-4.63a.72.72,0,0,0,0-.83l-.5,0h-20c-.16,0-.31,0-.22.15a7.15,7.15,0,0,0,.46.68c.09.1.16.12.36.12h15.3c.09,0,.39,0,.39.11a8.16,8.16,0,0,1-4,3.91l0,0V20c0-.23,0-.22-.14-.29-.56-.12-2.86-.34-3.13-.38s-.15.2-.15.31c0,.53,0,2.8,0,3.23s-.2.46-.4.46H173c-.16,0-.25.09-.09.22s.64.57.84.68a.6.6,0,0,0,.42.12c1.18,0,11.76,0,11.76,0,.31,0,.37.15.37.36,0,.54,0,6.78,0,7.57,0,.52-.22.53-.49.51-.68-.06-4.61-.7-4.69-.7s-.13,0-.13.12,0,.1.13.17a15.55,15.55,0,0,1,3.34,2.17c1,.91.78,1.24,1.3,1.25,2.36,0,3.59-.7,3.85-2.2.15-1,.11-6.2.11-8.89,0-.23,0-.36.26-.36h14.63C205.21,24.37,205,24.08,204.76,23.88Zm-31.09-6.11a.6.6,0,0,0,.42-.27c.62-.89.83-4.23.8-5.93h26.35c-.19,1.72-.36,4.94.18,5.85a.62.62,0,0,0,.39.3,7.42,7.42,0,0,0,2.87-.37.41.41,0,0,0,.22-.63A37,37,0,0,1,203,10.88a19,19,0,0,1-.44-2.26c0-.21-.5-.24-.63,0a8.1,8.1,0,0,0-.5,2H174.82a5.76,5.76,0,0,0-.66-2c-.11-.22-.34-.21-.38,0-.18.8-.34,1.31-.63,2.23a32.24,32.24,0,0,1-2.44,5.65.39.39,0,0,0,.17.64A7.41,7.41,0,0,0,173.67,17.77ZM185.86,4.45a16.39,16.39,0,0,1,1.07,4.13c0,.32.32.37.54.31a6.46,6.46,0,0,0,2.2-1.23.48.48,0,0,0,.1-.43c-.17-1.09-1.82-3-2.74-3.72a6.22,6.22,0,0,0-1.92-1.11c-.22-.06-.37.09-.27.24A16.47,16.47,0,0,1,185.86,4.45Zm-8.5,1.1a17.15,17.15,0,0,1,1.75,3.92.38.38,0,0,0,.58.22,5.9,5.9,0,0,0,2-1.54.52.52,0,0,0,0-.44c-.36-1-2.31-2.65-3.34-3.27a6.45,6.45,0,0,0-2.09-.79c-.23,0-.35.13-.22.27A18.93,18.93,0,0,1,177.36,5.55Zm15,4.93c.65-.41,2.69-1.93,3.84-2.91a39.32,39.32,0,0,0,3.4-3.12c.13-.13,0-.26-.1-.36a28.86,28.86,0,0,0-3.1-1.75c-.21-.1-.33-.13-.42-.06s-.1,0-.16.29a31.81,31.81,0,0,1-3.71,7.63c-.12.16-.14.27-.08.33S192.25,10.58,192.41,10.48Z"/><path class="cls-2" d="M165.3,13.78c.32-.13.34-.34.14-.59a13.26,13.26,0,0,0-2.83-2.07c-.47-.27-.81-.35-1.16,0-.11.13-.65.59-1,1.07s-.85.6-2.39.6h-6.89c-.34,0-.57,0-.53-.28.48-2.86,1-8.37,1-8.59s-.07-.18-.29-.21c-1.17-.13-3-.31-4.11-.44-.13,0-.19,0-.17.28s0,.28,0,.65a56.89,56.89,0,0,1-.17,8.3c-.05.3-.05.29-.41.29h-14a.15.15,0,0,0,0,.24c.12.14.37.52.49.64a.5.5,0,0,0,.43.19h13.15c.22,0,.14.14.17.32-.48,3.51-1.18,8.32-3.58,11.85a23.44,23.44,0,0,1-10.56,8.48c-.18.08-.25.2-.2.3s.18.11.33.08c5.22-1.23,10.57-4.66,12.94-7.74,3.2-4.17,4.5-10.5,4.79-12.94,0-.28.21-.35.66-.35H163.6A7.46,7.46,0,0,0,165.3,13.78Zm3.53,19.94c-5.33-2.42-14.64-7.6-16.3-16.19-.05-.27-.12-.45-.42-.43s-.27.53-.21,1.43c.77,7.36,6.08,13.28,9.76,16.06a1,1,0,0,0,1.08.21,17,17,0,0,1,6-.73C169.06,34.09,169,33.87,168.83,33.72Z"/><path class="cls-2" d="M66,32.92c.16.1.26.11.32,0s0-.18-.11-.34A34.43,34.43,0,0,1,61.86,25c-.09-.28-.09-.23-.18-.29s-.22,0-.42.1a25.33,25.33,0,0,0-2.8,2.11c-.11.11-.21.25-.07.38a35.67,35.67,0,0,0,3.62,3A48.22,48.22,0,0,0,66,32.92ZM85.24,34.5c-.82-.59-2.51-1.85-3-2.18s-.56-.16-.81.09S80.12,33.78,79.76,34c-.18.23-.43.16-2,.16H72c-.9,0-1-.31-1-.81s0-8.64,0-9.77c0-.35.18-.4.39-.4H81.62c.54,0,.65-.18.45-.39s-2.48-2-2.88-2.28-.38-.12-1.12.79a3.06,3.06,0,0,1-.78.75,10.13,10.13,0,0,1-2.18.08H71.38c-.32,0-.42-.05-.42-.59V16.73c0-.39.3-.34.56-.34h4.91c.43,0,.5-.22.21-.48s-1.74-1.34-2.47-2c-.42-.3-.59-.13-.78.06L72.26,15.2c-.14.15-.49.25-2.19.25h-7.3c-.1,0-.15.06-.08.15s.49.59.56.66a.3.3,0,0,0,.29.12h3.62c.29,0,.49,0,.5.34,0,.65,0,4.65,0,4.75,0,.38.07.69-.52.69H64.88c-2.27,0-6.73,0-8,0-.16,0-.3.1-.16.26a4.09,4.09,0,0,0,.61.55c.14.11.26.28.56.23,1.31,0,4.88,0,6.85,0h2.43c.31,0,.55,0,.55.31v9.86c0,.39,0,.81-.52.81H53.52c-.12,0-.17.07-.09.18s.83.61.94.7a.4.4,0,0,0,.41.15c1.08,0,28.53,0,28.53,0,.87,0,1.6,0,1.86,0S85.8,34.91,85.24,34.5Zm-8.12-9.72c-.2-.13-.32-.16-.42-.1s-.09,0-.18.29a34.43,34.43,0,0,1-4.38,7.64c-.14.16-.17.27-.12.34s.16.07.33,0c.68-.36,2.79-1.77,4-2.69a36.22,36.22,0,0,0,3.61-3c.14-.13,0-.27-.07-.38A25.33,25.33,0,0,0,77.12,24.78ZM72.79,5.67a5.3,5.3,0,0,1-.29-.77c0-.12-.14-.18-.31-.18H65.54c-.23,0-.34.17-.41.44-.74,3-4.71,11.13-14.44,15.81l.54.16c12.2-3.56,17.37-14,17.68-15.3a.07.07,0,0,1,0,0h2.63A25,25,0,0,0,84.82,20.61a.75.75,0,0,0,.74,0,21.31,21.31,0,0,1,4.61-1.43l.12-.23C86.33,18.47,76.62,13.46,72.79,5.67Z"/><path class="cls-2" d="M77.15,50.79c0,1.61,0,5.46.09,6.17.06.49.16.86.68.92a4.92,4.92,0,0,0,.67.07c.11,0,.14,0,.14.1s-.09.14-.28.14c-.85,0-1.85,0-2,0s-1.17,0-1.69,0c-.19,0-.28,0-.28-.14s0-.1.14-.1a2.4,2.4,0,0,0,.52-.07c.35-.06.43-.43.5-.92.09-.71.09-4.56.09-6.17v-3c0-2.62,0-3.85,0-4.39s-.18-.84-.75-1a3.83,3.83,0,0,0-.6,0c-.06,0-.13,0-.13-.1s.09-.13.28-.13c.78,0,1.83.05,1.93.05s1.16-.05,1.69-.05c.19,0,.27,0,.27.13s-.06.1-.13.1a3.09,3.09,0,0,0-.44,0c-.47.09-.61.37-.64,1s0,1.77,0,4.39Z"/><path class="cls-2" d="M94,41.47c.18-.46.24-.55.33-.55s.14.07.31.52,2.52,6.38,3.41,8.53c.53,1.26,1,1.49,1.26,1.57a1.64,1.64,0,0,0,.58.09c.09,0,.15,0,.15.08s-.13.12-.3.12-1,0-2,0a.54.54,0,0,1-.24,0,.37.37,0,0,1-.17-.16c0-.06-.07-.17-.16-.39l-1.35-3.49a.16.16,0,0,0-.14-.08H92.58c-.07,0-.11,0-.15.11l-.87,2.51a2.89,2.89,0,0,0-.2.95c0,.28.3.41.55.41h.15c.1,0,.14,0,.14.08s-.08.12-.21.12c-.36,0-1,0-1.14,0s-1,0-1.65,0c-.19,0-.28,0-.28-.12s.06-.08.13-.08l.42,0c.68-.1,1-.63,1.23-1.34Zm1.53,5.67c.07,0,.07,0,0-.1l-1.38-3.83c-.08-.21-.15-.21-.23,0L92.7,47c0,.07,0,.1,0,.1Z"/><path class="cls-2" d="M104.68,51.78c-.17,0-1,0-1.62,0-.15,0-.23,0-.23-.12s0-.08.12-.08a1.92,1.92,0,0,0,.6-.09c.36-.1.43-.51.43-1.8l0-8.11c0-.56,0-.71.16-.71s.37.31.51.45l4.64,4.86c1.45,1.5,3,3.23,3.5,3.7l-.15-7.19c0-.92-.12-1.24-.57-1.35a3.88,3.88,0,0,0-.72-.08c-.1,0-.12,0-.12-.09s.12-.1.29-.1c.67,0,1.37,0,1.53,0s.64,0,1.24,0c.16,0,.26,0,.26.1s-.06.09-.16.09a1.09,1.09,0,0,0-.35,0c-.48.1-.54.41-.54,1.26l0,8.3c0,.93,0,1-.13,1s-.29-.15-1.07-.9c-.16-.14-2.26-2.23-3.81-3.84-1.69-1.77-3.34-3.55-3.81-4.06l.21,8.45A.19.19,0,0,1,104.68,51.78Z"/><path class="cls-2" d="M135.9,51.22c1.53,0,2-.27,2.31-.7a2.21,2.21,0,0,0,.29-.76c0-.14.06-.23.13-.23s.12.06.12.33a8.9,8.9,0,0,1-.3,1.63c-.08.34-.09.36-.43.36-2.44,0-4.89-.07-7.45-.07-.18,0-.26,0-.26-.11s0-.14.21-.39c2.17-3.19,4.37-6.38,6.4-9.58h-3.16a5.51,5.51,0,0,0-2.11.28,1.64,1.64,0,0,0-.83,1.12c0,.21-.09.26-.16.26s-.09-.07-.09-.19.22-1.46.3-1.88c0-.2,0-.27.14-.27a3.57,3.57,0,0,0,.62.1c1.38.06,2.08,0,2.53,0h4.08c.21,0,.29,0,.29.11a.25.25,0,0,1-.06.18c-2.11,3.25-4.32,6.51-6.54,9.77Z"/><path class="cls-2" d="M164.38,49.88h.06c.39-1.31,1.73-5.42,2.25-7.23a3.37,3.37,0,0,0,.16-.91c0-.25-.16-.43-.84-.43-.07,0-.13,0-.13-.09s.07-.1.25-.1c.75,0,1.36,0,1.49,0s.73,0,1.18,0c.13,0,.21,0,.21.09s0,.1-.13.1a1.93,1.93,0,0,0-.5.08c-.44.15-.67.75-.95,1.53-.64,1.8-2.11,6.3-2.69,7.89-.37,1-.45,1.21-.61,1.21s-.23-.18-.44-.73l-2.86-7.87h0c-.53,1.35-2.52,6.54-3.05,7.86-.24.59-.3.74-.48.74s-.22-.15-.51-1.11l-2.6-8.41c-.23-.74-.42-1-.8-1.1a2.62,2.62,0,0,0-.66-.09c-.07,0-.14,0-.14-.09s.09-.1.24-.1c.76,0,1.56,0,1.72,0s.78,0,1.51,0c.2,0,.26,0,.26.1s-.07.09-.15.09a1.42,1.42,0,0,0-.57.09.4.4,0,0,0-.19.34,12.44,12.44,0,0,0,.28,1.3c.22.91,1.74,6.11,2,6.86h0l3.09-8.08c.22-.57.28-.64.37-.64s.18.18.36.66Z"/><path class="cls-2" d="M91.22,40.34H90.1c-.62,0-1,0-1.53,0a5.1,5.1,0,0,0-2.77,1.26c-.86.65-7.68,7.76-7.68,7.76.93,1.34,5.57,7.62,6.87,8.87,1,.9,1.53,1.51,2.72,1.63a11.8,11.8,0,0,0,1.56.1l1.28,0c.39,0,.5,0,.5-.18s-.14-.16-.3-.16a4.93,4.93,0,0,1-1.53-.43,10.65,10.65,0,0,1-3.8-3c-.82-.89-4.29-5-5.8-6.85,1.37-1.3,6-5.55,6.88-6.26a9.85,9.85,0,0,1,3.55-2.22,4.5,4.5,0,0,1,1.37-.26c.16,0,.29,0,.29-.12S91.6,40.34,91.22,40.34Z"/><path class="cls-2" d="M121.78,41.47c.17-.46.23-.55.32-.55s.15.07.33.52,2.51,6.38,3.4,8.53c.52,1.26,1,1.49,1.25,1.57a1.73,1.73,0,0,0,.59.09c.08,0,.14,0,.14.08s-.13.12-.29.12-1,0-2,0a.57.57,0,0,1-.24,0,.41.41,0,0,1-.16-.16,3.74,3.74,0,0,1-.16-.39l-1.36-3.49a.13.13,0,0,0-.13-.08h-3.14c-.07,0-.11,0-.14.11l-.88,2.51a2.89,2.89,0,0,0-.2.95c0,.28.3.41.55.41h.15c.1,0,.14,0,.14.08s-.09.12-.22.12c-.35,0-1,0-1.14,0s-1,0-1.65,0c-.19,0-.27,0-.27-.12s0-.08.13-.08l.42,0c.68-.1,1-.63,1.22-1.34Zm1.52,5.67c.07,0,.07,0,.06-.1L122,43.21c-.07-.21-.15-.21-.22,0L120.46,47c0,.07,0,.1.05.1Z"/><path class="cls-2" d="M146.19,41.47c.18-.46.24-.55.33-.55s.14.07.32.52,2.51,6.38,3.4,8.53c.53,1.26.95,1.49,1.26,1.57a1.68,1.68,0,0,0,.58.09c.09,0,.14,0,.14.08s-.13.12-.28.12-1,0-2,0a.56.56,0,0,1-.24,0,.37.37,0,0,1-.17-.16c0-.06-.07-.17-.16-.39L148,47.73a.13.13,0,0,0-.13-.08h-3.15a.14.14,0,0,0-.14.11l-.87,2.51a2.69,2.69,0,0,0-.21.95c0,.28.3.41.55.41h.15c.1,0,.14,0,.14.08s-.08.12-.21.12c-.36,0-1,0-1.14,0s-1,0-1.65,0c-.19,0-.28,0-.28-.12s.06-.08.13-.08l.43,0c.67-.1,1-.63,1.22-1.34Zm1.53,5.67c.07,0,.07,0,.05-.1l-1.39-3.83q-.1-.32-.21,0L144.88,47c0,.07,0,.1.05.1Z"/><path class="cls-2" d="M174.55,41.47c.18-.46.23-.55.32-.55s.15.07.33.52,2.51,6.38,3.4,8.53c.53,1.26,1,1.49,1.25,1.57a1.73,1.73,0,0,0,.59.09c.08,0,.15,0,.15.08s-.14.12-.3.12-1,0-2,0a.56.56,0,0,1-.24,0,.37.37,0,0,1-.17-.16c0-.06-.07-.17-.16-.39l-1.36-3.49a.12.12,0,0,0-.13-.08h-3.14c-.07,0-.11,0-.14.11l-.88,2.51a2.89,2.89,0,0,0-.2.95c0,.28.3.41.55.41h.15c.1,0,.14,0,.14.08s-.09.12-.22.12c-.34,0-1,0-1.13,0s-1,0-1.66,0c-.18,0-.27,0-.27-.12s.06-.08.13-.08l.42,0c.68-.1,1-.63,1.23-1.34Zm1.52,5.67c.07,0,.07,0,.06-.1l-1.39-3.83c-.07-.21-.14-.21-.22,0L173.24,47c0,.07,0,.1,0,.1Z"/><path class="cls-2" d="M91.94,55.94c0-1.22,0-1.44,0-1.68s-.08-.4-.35-.45l-.27,0s-.06,0-.06,0,0-.07.13-.07l.92,0,.79,0c.09,0,.13,0,.13.07s0,0-.06,0l-.21,0c-.21,0-.27.17-.29.45s0,.46,0,1.68V57a2.38,2.38,0,0,0,.6,1.93,1.62,1.62,0,0,0,1.22.43,1.7,1.7,0,0,0,1.25-.56,3,3,0,0,0,.47-1.91v-1c0-1.22,0-1.44,0-1.68s-.08-.4-.34-.45l-.27,0s-.07,0-.07,0,0-.07.13-.07l.85,0,.67,0c.09,0,.13,0,.13.07s0,0-.06,0a.79.79,0,0,0-.2,0c-.22,0-.28.17-.3.45s0,.46,0,1.68v.83a3,3,0,0,1-.73,2.33,2.43,2.43,0,0,1-1.65.57,2.19,2.19,0,0,1-2.35-2.6Z"/><path class="cls-2" d="M102.31,58.5c0,.64.09.85.31.91a1.78,1.78,0,0,0,.4.05s.07,0,.07,0,0,.06-.15.06c-.45,0-.78,0-.85,0l-.77,0c-.08,0-.13,0-.13-.06s0,0,.07,0a1.19,1.19,0,0,0,.33-.05c.2,0,.24-.28.24-1V54c0-.3,0-.39.08-.39s.2.18.29.25,1.31,1.39,2.54,2.67c.8.82,1.67,1.77,1.93,2l-.09-4c0-.51-.06-.68-.31-.74a2.31,2.31,0,0,0-.4,0s-.06,0-.06-.06.06,0,.16,0l.83,0,.69,0c.09,0,.14,0,.14,0s0,.06-.08.06a.87.87,0,0,0-.2,0c-.26,0-.29.23-.29.69l0,4.56c0,.52,0,.56-.07.56s-.17-.09-.59-.5c-.09-.08-1.24-1.22-2.09-2.11s-1.84-1.95-2.09-2.23Z"/><path class="cls-2" d="M114,57.31c0,.74,0,1.35,0,1.69s.07.39.31.42l.36,0s.06,0,.06,0,0,.06-.12.06l-1,0-.79,0c-.08,0-.13,0-.13-.06s0,0,.07,0a1,1,0,0,0,.24,0c.16,0,.2-.2.24-.42s0-1,0-1.69V55.94c0-1.22,0-1.44,0-1.68s-.1-.4-.28-.44l-.24,0s-.07,0-.07,0,0-.07.13-.07l.81,0,.78,0c.1,0,.14,0,.14.07s0,0-.07,0l-.2,0c-.22,0-.28.17-.29.45s0,.46,0,1.68Z"/><path class="cls-2" d="M130.48,55.94c0-1.22,0-1.44,0-1.68s-.09-.4-.35-.45l-.27,0s-.07,0-.07,0,.05-.07.13-.07l.91,0h2a2.09,2.09,0,0,0,.34,0s.07,0,.11,0,0,0,0,.07,0,.14-.06.37c0,.07,0,.42,0,.51s0,.08-.05.08-.07,0-.07-.09a.88.88,0,0,0-.05-.29c0-.13-.13-.21-.57-.26-.13,0-1.15,0-1.24,0s0,0,0,.08v2.15c0,.06,0,.08,0,.08s1.24,0,1.42,0,.31,0,.38-.11.09-.1.12-.1,0,0,0,.07,0,.18-.06.43,0,.45,0,.5,0,.15-.06.15-.05,0-.05-.07a.83.83,0,0,0,0-.26c0-.11-.11-.24-.42-.28s-1.16,0-1.29,0-.06,0-.06,0v2c0,.54.15.64.94.64a3.16,3.16,0,0,0,.91-.09c.21-.09.3-.24.36-.56,0-.09,0-.12.07-.12s0,.06,0,.12a7.15,7.15,0,0,1-.1.75c-.06.21-.13.21-.44.21-1.21,0-1.89-.05-2.12-.05l-.79,0c-.09,0-.12,0-.12-.06s0,0,.06,0a1,1,0,0,0,.24,0c.16,0,.2-.2.23-.42s0-1,0-1.69Z"/><path class="cls-2" d="M140.66,56.66s0,0,0-.08a.05.05,0,0,1,0,0,1.84,1.84,0,0,0,.85-.16,1.11,1.11,0,0,0,.58-1.09c0-1-.62-1.35-1.48-1.35a4.76,4.76,0,0,0-.66,0,.11.11,0,0,0-.07.1s0,4.59.05,4.93.07.39.31.42l.36,0c.05,0,.06,0,.06,0s0,.06-.12.06l-1,0-.75,0c-.09,0-.13,0-.13-.06s0,0,.06,0a1,1,0,0,0,.24,0c.16,0,.2-.2.23-.42s0-1,0-1.69V55.94c0-1.22,0-1.44,0-1.68s-.08-.4-.35-.45l-.27,0s-.06,0-.06,0,0-.07.13-.07l.9,0,1.07,0a3,3,0,0,1,1.47.34,1.31,1.31,0,0,1,.59,1,1.57,1.57,0,0,1-1.08,1.57,25.64,25.64,0,0,0,1.77,2.26,1.68,1.68,0,0,0,1,.56,1.51,1.51,0,0,0,.31,0s.07,0,.07,0,0,.06-.19.06H144a1.67,1.67,0,0,1-.86-.15,4,4,0,0,1-1.11-1.14c-.34-.43-.7-1.25-.89-1.43a.68.68,0,0,0-.42-.14S140.66,56.69,140.66,56.66Z"/><path class="cls-2" d="M148.5,59.46c-.11-.05-.11-.08-.11-.29,0-.39,0-.7,0-.83s0-.12.06-.12.06,0,.06.08a1.62,1.62,0,0,0,0,.29,1.08,1.08,0,0,0,1.19.79,1.05,1.05,0,0,0,1.15-1c0-.54-.24-.85-.93-1.4l-.36-.29c-.85-.68-1-1.16-1-1.69,0-.83.64-1.4,1.66-1.4a3,3,0,0,1,.74.08l.28,0c.07,0,.09,0,.09.06a7.31,7.31,0,0,0,0,.82c0,.12,0,.18-.05.18s-.06,0-.06-.11a1.39,1.39,0,0,0-.12-.38c0-.09-.25-.42-1-.42a.9.9,0,0,0-1,.91c0,.44.23.71,1,1.3l.22.17c.95.73,1.18,1.22,1.18,1.83a1.61,1.61,0,0,1-.69,1.3,2.15,2.15,0,0,1-1.21.32A2.48,2.48,0,0,1,148.5,59.46Z"/><path class="cls-2" d="M158.12,57.31c0,.74,0,1.35,0,1.69s.08.39.32.42l.36,0s.06,0,.06,0,0,.06-.12.06l-1,0-.79,0c-.09,0-.12,0-.12-.06s0,0,.06,0a1.09,1.09,0,0,0,.24,0c.16,0,.2-.2.23-.42s0-1,0-1.69V55.94c0-1.22,0-1.44,0-1.68s-.1-.4-.27-.44l-.26,0s-.06,0-.06,0,0-.07.13-.07l.81,0,.78,0c.1,0,.13,0,.13.07s0,0-.06,0l-.2,0c-.22,0-.28.17-.3.45s0,.46,0,1.68Z"/><path class="cls-2" d="M166.53,57.31c0,.74,0,1.35,0,1.69s.07.39.32.42l.35,0s.07,0,.07,0,0,.06-.13.06l-1,0-.78,0c-.09,0-.13,0-.13-.06s0,0,.06,0a1,1,0,0,0,.24,0c.17,0,.2-.2.23-.42s0-1,0-1.69V54h-1.18c-.5,0-.69.06-.82.26a1.53,1.53,0,0,0-.14.23c0,.07,0,.08-.07.08s0,0,0-.07.16-.75.17-.81,0-.15.08-.15a1.42,1.42,0,0,0,.36.09,6,6,0,0,0,.63,0h3a3.86,3.86,0,0,0,.8-.08s0,.05,0,.1c0,.23,0,.77,0,.85s0,.11-.06.11-.06,0-.06-.14v-.08c0-.23-.22-.42-1-.43h-1Z"/><path class="cls-2" d="M174,54.28c.41.52,1.33,2.17,1.48,2.4.15-.33,1.16-2,1.33-2.26a.77.77,0,0,0,.13-.4c0-.11,0-.19-.12-.21s-.12,0-.12-.08,0,0,.12,0l.53,0,.79,0s.1,0,.1,0-.05.06-.1.06a.77.77,0,0,0-.38.11,1.54,1.54,0,0,0-.43.4,24.9,24.9,0,0,0-1.52,2.47,1.69,1.69,0,0,0-.13.78v.67c0,.12,0,.44,0,.78s.08.39.33.42l.36,0c.05,0,.06,0,.06,0s0,.06-.12.06l-1,0-.79,0c-.09,0-.12,0-.12-.06s0,0,.06,0a1.09,1.09,0,0,0,.24,0c.16,0,.23-.2.25-.42s0-.66,0-.78v-.67a1.57,1.57,0,0,0-.19-.82,20.18,20.18,0,0,0-1.4-2.24,3.52,3.52,0,0,0-.55-.58.73.73,0,0,0-.34-.12s-.08,0-.08-.06,0,0,.1,0l.36,0A1.9,1.9,0,0,1,174,54.28Z"/><path class="cls-2" d="M122.42,58.69c.47-1,1.55-3.76,1.72-4.32a1.07,1.07,0,0,0,.07-.29.18.18,0,0,0-.1-.18.85.85,0,0,0-.31,0s-.09,0-.09,0,.05-.06.18-.06l.79,0,.62,0c.09,0,.14,0,.14.05s0,0-.1,0a.7.7,0,0,0-.38.1c-.1.07-.23.2-.44.73-.09.22-.49,1.16-.9,2.11-.49,1.14-.85,2-1,2.36s-.25.59-.33.59-.14-.11-.29-.48L120.1,54.8c-.18-.44-.34-.81-.62-.95a1.67,1.67,0,0,0-.29-.1s0-.06,0-.09.08,0,.22,0a2.31,2.31,0,0,1,.78.22,1.92,1.92,0,0,1,.8,1.09Z"/><path class="cls-2" d="M23.79,39.48a.42.42,0,0,1,.84,0,.42.42,0,1,1-.84,0Z"/><path class="cls-2" d="M23.79,36.19a.42.42,0,1,1,.42.42A.42.42,0,0,1,23.79,36.19Z"/><path class="cls-2" d="M23.79,37.83a.42.42,0,1,1,.42.43A.42.42,0,0,1,23.79,37.83Z"/><path class="cls-2" d="M39.48,24.63a.42.42,0,1,1,0-.84.42.42,0,0,1,0,.84Z"/><path class="cls-2" d="M36.19,24.63a.42.42,0,1,1,.42-.42A.42.42,0,0,1,36.19,24.63Z"/><path class="cls-2" d="M37.83,24.63a.42.42,0,0,1,0-.84.42.42,0,0,1,0,.84Z"/><path class="cls-2" d="M24.63,8.94a.42.42,0,1,1-.42-.42A.42.42,0,0,1,24.63,8.94Z"/><path class="cls-2" d="M24.63,12.23a.42.42,0,1,1-.42-.42A.42.42,0,0,1,24.63,12.23Z"/><path class="cls-2" d="M24.63,10.59a.42.42,0,1,1-.42-.43A.42.42,0,0,1,24.63,10.59Z"/><path class="cls-2" d="M8.94,23.79a.42.42,0,1,1-.42.42A.42.42,0,0,1,8.94,23.79Z"/><path class="cls-2" d="M12.23,23.79a.42.42,0,1,1-.42.42A.42.42,0,0,1,12.23,23.79Z"/><path class="cls-2" d="M10.59,23.79a.42.42,0,1,1-.43.42A.42.42,0,0,1,10.59,23.79Z"/><path class="cls-2" d="M.05,24.27s.19.08.29.14a3,3,0,0,1,.75.69c.32.38.75.88,1.14,1.26a7.7,7.7,0,0,0,1.69,1.22,2.8,2.8,0,0,1-.81.41,9.89,9.89,0,0,0,1.73,1.43,7.34,7.34,0,0,0,1.4.67,5.51,5.51,0,0,0,1.33.31A5.8,5.8,0,0,0,8,31.62a6.14,6.14,0,0,0,.51.9,2.7,2.7,0,0,0,1.37,1A1.9,1.9,0,0,1,11,34.71a4.48,4.48,0,0,0,.93,1.77,4.61,4.61,0,0,0,1.77.93,1.9,1.9,0,0,1,1.16,1.18,2.74,2.74,0,0,0,1,1.37,5.47,5.47,0,0,0,.91.5,2.76,2.76,0,0,1,1.51,1.72,8,8,0,0,0,.68,1.4,9.89,9.89,0,0,0,1.43,1.73,2.8,2.8,0,0,1,.41-.81,8,8,0,0,0,1.22,1.69c.38.39.88.82,1.26,1.14a3.19,3.19,0,0,1,.69.75c.06.1.12.26.14.29s0,.05.06.05.05,0,.06-.05.08-.19.14-.29a3.45,3.45,0,0,1,.69-.75c.38-.32.88-.75,1.26-1.14a7.7,7.7,0,0,0,1.22-1.69,2.8,2.8,0,0,1,.41.81,9.89,9.89,0,0,0,1.43-1.73,7.34,7.34,0,0,0,.67-1.4,2.81,2.81,0,0,1,1.52-1.72,5.47,5.47,0,0,0,.91-.5,2.74,2.74,0,0,0,1-1.37,1.93,1.93,0,0,1,1.16-1.18,4.61,4.61,0,0,0,1.77-.93,4.48,4.48,0,0,0,.93-1.77,1.9,1.9,0,0,1,1.18-1.16,2.74,2.74,0,0,0,1.37-1,6.14,6.14,0,0,0,.51-.9,5.8,5.8,0,0,0,.38-1.22,5.51,5.51,0,0,0,1.33-.31,7.34,7.34,0,0,0,1.4-.67A9.89,9.89,0,0,0,45.31,28a2.8,2.8,0,0,1-.81-.41,7.7,7.7,0,0,0,1.69-1.22c.39-.38.82-.88,1.15-1.26a2.83,2.83,0,0,1,.74-.69c.1-.06.26-.12.29-.14s.05,0,.05-.06,0-.05-.05-.06-.19-.08-.29-.14a2.83,2.83,0,0,1-.74-.69c-.33-.38-.76-.88-1.15-1.26a7.7,7.7,0,0,0-1.69-1.22,2.8,2.8,0,0,1,.81-.41A9.89,9.89,0,0,0,43.58,19a8,8,0,0,0-1.4-.68,6,6,0,0,0-1.33-.3,5.8,5.8,0,0,0-.38-1.22,6.14,6.14,0,0,0-.51-.9,2.74,2.74,0,0,0-1.37-1,1.9,1.9,0,0,1-1.18-1.16,4.48,4.48,0,0,0-.93-1.77A4.61,4.61,0,0,0,34.71,11a1.93,1.93,0,0,1-1.16-1.18,2.68,2.68,0,0,0-1-1.36A4.83,4.83,0,0,0,31.61,8a2.81,2.81,0,0,1-1.52-1.72,7.34,7.34,0,0,0-.67-1.4A10.27,10.27,0,0,0,28,3.11a2.8,2.8,0,0,1-.41.81,7.7,7.7,0,0,0-1.22-1.69c-.38-.39-.88-.82-1.26-1.14a3.45,3.45,0,0,1-.69-.75c-.06-.11-.12-.26-.14-.29s0,0-.06,0-.05,0-.06.05-.08.18-.14.29a3.19,3.19,0,0,1-.69.75c-.38.32-.88.75-1.26,1.14a8,8,0,0,0-1.22,1.69,2.8,2.8,0,0,1-.41-.81A10.27,10.27,0,0,0,19,4.84a8,8,0,0,0-.68,1.4A2.76,2.76,0,0,1,16.81,8a4.83,4.83,0,0,0-.91.51,2.68,2.68,0,0,0-1,1.36A1.9,1.9,0,0,1,13.71,11a4.61,4.61,0,0,0-1.77.93A4.48,4.48,0,0,0,11,13.71a1.9,1.9,0,0,1-1.18,1.16,2.7,2.7,0,0,0-1.37,1,6.14,6.14,0,0,0-.51.9A5.8,5.8,0,0,0,7.57,18a6,6,0,0,0-1.33.3,8,8,0,0,0-1.4.68,9.89,9.89,0,0,0-1.73,1.43,2.8,2.8,0,0,1,.81.41,7.7,7.7,0,0,0-1.69,1.22c-.39.38-.82.88-1.14,1.26A3,3,0,0,1,.34,24c-.1.06-.26.12-.29.14s0,0,0,.06S0,24.26.05,24.27ZM1.38,24a5.12,5.12,0,0,1,.39-.54,11.87,11.87,0,0,1,1.11-1.18A9.93,9.93,0,0,1,4,21.44a9.26,9.26,0,0,1,1.09-.67,1.8,1.8,0,0,0-.85-.38,5.72,5.72,0,0,1,1.12-.83,7.84,7.84,0,0,1,1-.53,5.37,5.37,0,0,1,1.93-.45A5,5,0,0,1,8.69,17a3.42,3.42,0,0,1,1-1.32c.5-.34.83-.37,1.2-.66a2.34,2.34,0,0,0,.82-1.21,3.14,3.14,0,0,1,.76-1.26,3.24,3.24,0,0,1,1.25-.76A2.33,2.33,0,0,0,15,10.93c.29-.37.32-.7.66-1.2a3.42,3.42,0,0,1,1.32-1A3.71,3.71,0,0,0,19,6.37a7.84,7.84,0,0,1,.53-1,6.48,6.48,0,0,1,.83-1.13,1.8,1.8,0,0,0,.38.86A9.26,9.26,0,0,1,21.44,4a9.93,9.93,0,0,1,.82-1.08,11.87,11.87,0,0,1,1.18-1.11c.25-.2.48-.36.54-.4a.37.37,0,0,1,.46,0c.06,0,.29.2.54.4a11.87,11.87,0,0,1,1.18,1.11A11.53,11.53,0,0,1,27,4a10.82,10.82,0,0,1,.66,1.09A1.8,1.8,0,0,0,28,4.19a7.06,7.06,0,0,1,.84,1.13,9.34,9.34,0,0,1,.52,1,3.69,3.69,0,0,0,2.07,2.32,3.42,3.42,0,0,1,1.32,1c.34.5.37.83.66,1.2a2.34,2.34,0,0,0,1.21.82,3.06,3.06,0,0,1,2,2A2.34,2.34,0,0,0,37.49,15c.37.29.7.32,1.2.66a3.42,3.42,0,0,1,1,1.32,5,5,0,0,1,.39,1.62,5.37,5.37,0,0,1,1.93.45,7.84,7.84,0,0,1,1.05.53,6.13,6.13,0,0,1,1.13.83,1.75,1.75,0,0,0-.86.38,9.26,9.26,0,0,1,1.09.67,9.93,9.93,0,0,1,1.08.82,11.87,11.87,0,0,1,1.11,1.18A5.12,5.12,0,0,1,47,24a.34.34,0,0,1,0,.46,5.12,5.12,0,0,1-.39.54,11.87,11.87,0,0,1-1.11,1.18,11.53,11.53,0,0,1-1.08.83,10.82,10.82,0,0,1-1.09.66,1.75,1.75,0,0,0,.86.38,6.13,6.13,0,0,1-1.13.83,7.84,7.84,0,0,1-1.05.53,5.37,5.37,0,0,1-1.93.45,5,5,0,0,1-.39,1.62,3.42,3.42,0,0,1-1,1.32c-.5.34-.83.37-1.2.66a2.33,2.33,0,0,0-.82,1.22,3.36,3.36,0,0,1-.76,1.26,3.24,3.24,0,0,1-1.26.75,2.34,2.34,0,0,0-1.21.82c-.29.37-.32.7-.66,1.2a3.42,3.42,0,0,1-1.32,1,3.69,3.69,0,0,0-2.07,2.32,9.34,9.34,0,0,1-.52,1.05A6.64,6.64,0,0,1,28,44.23a1.75,1.75,0,0,0-.38-.86A10.82,10.82,0,0,1,27,44.46a10.25,10.25,0,0,1-.83,1.07A11.06,11.06,0,0,1,25,46.65a5.12,5.12,0,0,1-.54.39A.34.34,0,0,1,24,47a5.12,5.12,0,0,1-.54-.39,11.06,11.06,0,0,1-1.18-1.12,9,9,0,0,1-.82-1.07,9.26,9.26,0,0,1-.67-1.09,1.75,1.75,0,0,0-.38.86,6.13,6.13,0,0,1-.83-1.13A7.84,7.84,0,0,1,19,42.05,3.71,3.71,0,0,0,17,39.73a3.42,3.42,0,0,1-1.32-1c-.34-.5-.37-.83-.66-1.2a2.33,2.33,0,0,0-1.22-.82,3,3,0,0,1-2-2,2.33,2.33,0,0,0-.82-1.22c-.37-.29-.7-.32-1.2-.66a3.42,3.42,0,0,1-1-1.32,5,5,0,0,1-.39-1.62,5.37,5.37,0,0,1-1.93-.45,7.84,7.84,0,0,1-1-.53A5.72,5.72,0,0,1,4.2,28a1.8,1.8,0,0,0,.85-.38A10.82,10.82,0,0,1,4,27a11.53,11.53,0,0,1-1.08-.83A11.87,11.87,0,0,1,1.77,25a5.12,5.12,0,0,1-.39-.54.34.34,0,0,1,0-.46Z"/><path class="cls-2" d="M23.73,3.35l-.85.81a9.36,9.36,0,0,0-1.81,2.73A.08.08,0,0,1,21,7a.11.11,0,0,1-.1,0,1.4,1.4,0,0,1-.39-.72l-.28.46a10.88,10.88,0,0,0-.63,1.07,2.26,2.26,0,0,0-.23,1,1.15,1.15,0,0,0,.2.71,2.86,2.86,0,0,0,1.47.77c.65.16.88.27,1,.5a.3.3,0,0,1,.05.19.51.51,0,0,1-.05.22.38.38,0,0,1-.32.19,4.5,4.5,0,0,1-1.41-.58,11.77,11.77,0,0,0-1.25-.58,2.68,2.68,0,0,0-2,0,2.3,2.3,0,0,0-1,.78,1.66,1.66,0,0,0-.19,1.17.08.08,0,0,1,0,.1.12.12,0,0,1-.1,0,1,1,0,0,0-.75.16,1.75,1.75,0,0,0-.41.55A2,2,0,0,1,16,13l0,0a2.7,2.7,0,0,0,1.14.44,1.73,1.73,0,0,0,1.15-.21,3,3,0,0,1,1.29-.44,4.36,4.36,0,0,1,1.59.2l.48.22a1.07,1.07,0,0,0,.36.15.3.3,0,0,0,.24-.06.23.23,0,0,0,.06-.16c0-.33-.45-.61-1.15-.76a7,7,0,0,0-2.33,0,3.47,3.47,0,0,1-2-.27l-.07,0,.05-.07a2.56,2.56,0,0,1,1.24-.61,6.57,6.57,0,0,1,2.34,0l1.11.29a5.75,5.75,0,0,0,.79.19.87.87,0,0,0,.62-.15.44.44,0,0,0,.13-.32s0-.65,0-.65l0-.6v0a16.73,16.73,0,0,1,0-2.81,3.36,3.36,0,0,1,1.1-2.17l0,0,.07,0a3.31,3.31,0,0,1,1.09,2.17,15.81,15.81,0,0,1,0,2.81v0l0,.6,0,.64a.45.45,0,0,0,.13.33.86.86,0,0,0,.61.15,5.51,5.51,0,0,0,.8-.19L28,11.45a6.57,6.57,0,0,1,2.34,0,2.56,2.56,0,0,1,1.24.61l.06.07-.08,0a3.45,3.45,0,0,1-2,.27,7,7,0,0,0-2.33,0c-.7.15-1.13.43-1.15.76a.19.19,0,0,0,.06.16.3.3,0,0,0,.24.06,1.07,1.07,0,0,0,.36-.15l.48-.22a4.36,4.36,0,0,1,1.59-.2,3.12,3.12,0,0,1,1.29.44,1.73,1.73,0,0,0,1.15.21,2.7,2.7,0,0,0,1.14-.44l0,0a2,2,0,0,1,1.35-.11,1.64,1.64,0,0,0-.41-.55,1,1,0,0,0-.75-.16.12.12,0,0,1-.1,0,.08.08,0,0,1,0-.1,1.61,1.61,0,0,0-.2-1.17,2.22,2.22,0,0,0-1-.78,2.68,2.68,0,0,0-2,0,11.77,11.77,0,0,0-1.25.58,4.41,4.41,0,0,1-1.41.58.38.38,0,0,1-.32-.19.51.51,0,0,1-.05-.22.38.38,0,0,1,.05-.19c.13-.23.36-.34,1-.5a2.86,2.86,0,0,0,1.47-.77,1.15,1.15,0,0,0,.2-.71,2.19,2.19,0,0,0-.23-1,9.9,9.9,0,0,0-.63-1.08l-.28-.46a1.4,1.4,0,0,1-.39.72.11.11,0,0,1-.1,0,.11.11,0,0,1-.08-.07,9.11,9.11,0,0,0-1.8-2.73l-.85-.81s-.47-.44-.48-.46Z"/><path class="cls-2" d="M12.37,15.05a.92.92,0,0,0-.18.57,1.09,1.09,0,0,0,0,.18,0,0,0,0,1,0,0,.09.09,0,0,1,0,.07.11.11,0,0,1-.1,0,1.56,1.56,0,0,0-1.17.19,2.22,2.22,0,0,0-.78,1,2.58,2.58,0,0,0,0,2,11.77,11.77,0,0,0,.58,1.25,4.5,4.5,0,0,1,.58,1.41.38.38,0,0,1-.19.32.43.43,0,0,1-.41,0c-.23-.13-.34-.36-.5-1a2.8,2.8,0,0,0-.78-1.47,1.71,1.71,0,0,0-1.66,0,9.9,9.9,0,0,0-1.08.63l-.46.28a1.4,1.4,0,0,1,.72.39S7,21,7,21v0a.11.11,0,0,1-.07.08,9.11,9.11,0,0,0-2.73,1.8l-.81.85-.47.49s.47.47.47.47l.81.85a9.36,9.36,0,0,0,2.73,1.81.1.1,0,0,1,.07.07v0s0,0,0,.08a1.4,1.4,0,0,1-.72.39l.46.28a10.88,10.88,0,0,0,1.07.63,1.73,1.73,0,0,0,1.67,0,2.8,2.8,0,0,0,.78-1.47c.16-.65.27-.88.5-1a.4.4,0,0,1,.41,0,.35.35,0,0,1,.19.31,4.41,4.41,0,0,1-.58,1.41,11.77,11.77,0,0,0-.58,1.25,2.58,2.58,0,0,0,0,2,2.3,2.3,0,0,0,.78,1,1.61,1.61,0,0,0,1.17.18.11.11,0,0,1,.1,0,.09.09,0,0,1,0,.07,0,0,0,0,1,0,0,1.09,1.09,0,0,0,0,.18.92.92,0,0,0,.18.57,1.75,1.75,0,0,0,.55.41,2.49,2.49,0,0,1-.07-.53,1.72,1.72,0,0,1,.18-.82l0,0a2.7,2.7,0,0,0,.44-1.14c0-.11,0-.2,0-.29a1.61,1.61,0,0,0-.22-.86,3.08,3.08,0,0,1-.44-1.29,2.44,2.44,0,0,1,0-.27,4.76,4.76,0,0,1,.21-1.32l.22-.48a1,1,0,0,0,.15-.36v-.05a.27.27,0,0,0-.06-.19.23.23,0,0,0-.16-.06c-.33,0-.61.45-.76,1.15a7,7,0,0,0,0,2.33,3.47,3.47,0,0,1-.27,2l0,.08-.07-.06a2.56,2.56,0,0,1-.61-1.24,6.57,6.57,0,0,1,0-2.34l.29-1.11a5.51,5.51,0,0,0,.19-.8.86.86,0,0,0-.15-.61.45.45,0,0,0-.33-.13l-.64,0-.6,0h-.05a15.69,15.69,0,0,1-2.8,0,3.31,3.31,0,0,1-2.17-1.09l0,0,0-.07a3.36,3.36,0,0,1,2.17-1.09,15.71,15.71,0,0,1,2.8-.05h.05l.6,0,.64,0a.45.45,0,0,0,.33-.13.86.86,0,0,0,.15-.61,5.51,5.51,0,0,0-.19-.8l-.29-1.11a6.57,6.57,0,0,1,0-2.34,2.56,2.56,0,0,1,.61-1.24l.07-.05,0,.07a3.45,3.45,0,0,1,.27,2,7,7,0,0,0,0,2.33c.15.7.43,1.13.76,1.15a.19.19,0,0,0,.16-.06.26.26,0,0,0,.06-.18v-.06a1.07,1.07,0,0,0-.15-.36l-.22-.48a4.76,4.76,0,0,1-.21-1.32,2.44,2.44,0,0,1,0-.27,3,3,0,0,1,.44-1.29,1.61,1.61,0,0,0,.22-.86A2.32,2.32,0,0,0,13.06,16l0,0a1.72,1.72,0,0,1-.18-.82,2.49,2.49,0,0,1,.07-.53A1.75,1.75,0,0,0,12.37,15.05Z"/><path class="cls-2" d="M35.57,15.18a1.59,1.59,0,0,1-.18.81l0,0a2.69,2.69,0,0,0-.44,1.15c0,.1,0,.19,0,.28a1.61,1.61,0,0,0,.23.86,3.12,3.12,0,0,1,.44,1.29,2.44,2.44,0,0,1,0,.27,4.76,4.76,0,0,1-.21,1.32l-.22.48a1.07,1.07,0,0,0-.15.36v.06a.26.26,0,0,0,.06.18.2.2,0,0,0,.17.06c.32,0,.6-.45.75-1.15a7,7,0,0,0,0-2.33,3.45,3.45,0,0,1,.27-2l0-.07.07.05A2.56,2.56,0,0,1,37,18.09a6.57,6.57,0,0,1,0,2.34l-.29,1.11a5.51,5.51,0,0,0-.19.8.86.86,0,0,0,.15.61.45.45,0,0,0,.33.13l.65,0,.6,0h0a15.71,15.71,0,0,1,2.8.05,3.31,3.31,0,0,1,2.17,1.09l0,0,0,.07a3.31,3.31,0,0,1-2.17,1.09,15.81,15.81,0,0,1-2.81,0h0l-.61,0-.64,0a.45.45,0,0,0-.33.13.86.86,0,0,0-.15.61,5.51,5.51,0,0,0,.19.8L37,28a6.57,6.57,0,0,1,0,2.34,2.56,2.56,0,0,1-.61,1.24l-.07.06,0-.08a3.45,3.45,0,0,1-.27-2,7,7,0,0,0,0-2.33c-.15-.7-.43-1.13-.75-1.15a.24.24,0,0,0-.17.06.27.27,0,0,0-.06.19v.05a1,1,0,0,0,.15.36l.22.48a4.76,4.76,0,0,1,.21,1.32,2.44,2.44,0,0,1,0,.27,3.08,3.08,0,0,1-.44,1.29,1.61,1.61,0,0,0-.23.86c0,.09,0,.18,0,.29a2.7,2.7,0,0,0,.44,1.14l0,0a1.61,1.61,0,0,1,.18.82,2.49,2.49,0,0,1-.07.53,1.64,1.64,0,0,0,.55-.41.92.92,0,0,0,.18-.57.55.55,0,0,0,0-.18v0a.09.09,0,0,1,0-.07.08.08,0,0,1,.1,0,1.61,1.61,0,0,0,1.17-.2,2.22,2.22,0,0,0,.78-1,2.58,2.58,0,0,0,0-2,11.77,11.77,0,0,0-.58-1.25,4.41,4.41,0,0,1-.58-1.41.35.35,0,0,1,.19-.31.4.4,0,0,1,.41,0c.23.13.34.36.5,1A2.8,2.8,0,0,0,39,28.85a1.73,1.73,0,0,0,1.67,0,10.88,10.88,0,0,0,1.07-.63l.46-.28a1.4,1.4,0,0,1-.72-.39.16.16,0,0,1,0-.08v0a.08.08,0,0,1,.07-.07,9.36,9.36,0,0,0,2.73-1.81l.81-.85.47-.49s-.47-.47-.47-.47l-.81-.85a9.36,9.36,0,0,0-2.73-1.81.08.08,0,0,1-.07-.07v0a.13.13,0,0,1,0-.08,1.4,1.4,0,0,1,.72-.39l-.46-.28a10.88,10.88,0,0,0-1.07-.63,1.73,1.73,0,0,0-1.67,0A2.8,2.8,0,0,0,38.23,21c-.16.65-.27.88-.5,1a.43.43,0,0,1-.41,0,.38.38,0,0,1-.19-.32,4.5,4.5,0,0,1,.58-1.41,11.77,11.77,0,0,0,.58-1.25,2.58,2.58,0,0,0,0-2,2.22,2.22,0,0,0-.78-1,1.56,1.56,0,0,0-1.17-.19.11.11,0,0,1-.1,0,.09.09,0,0,1,0-.07v0a.55.55,0,0,0,0-.18.92.92,0,0,0-.18-.57,1.64,1.64,0,0,0-.55-.41A2.5,2.5,0,0,1,35.57,15.18Z"/><path class="cls-2" d="M30.09,35.13h0a3.08,3.08,0,0,1-1.29.44,4.36,4.36,0,0,1-1.59-.2l-.48-.22a1.07,1.07,0,0,0-.36-.15.3.3,0,0,0-.24.06.2.2,0,0,0-.06.17c0,.32.45.6,1.15.75a7,7,0,0,0,2.33,0,3.55,3.55,0,0,1,2,.27l.08,0-.06.07a2.56,2.56,0,0,1-1.24.61A6.34,6.34,0,0,1,28,37l-1.11-.28a5.51,5.51,0,0,0-.8-.19.86.86,0,0,0-.61.15.44.44,0,0,0-.13.32l0,.65,0,.6v0a15.81,15.81,0,0,1,0,2.81,3.31,3.31,0,0,1-1.09,2.17l0,0-.06,0a3.36,3.36,0,0,1-1.1-2.17,16.73,16.73,0,0,1,0-2.81v0l0-.6,0-.64a.45.45,0,0,0-.13-.33.87.87,0,0,0-.62-.15,5.75,5.75,0,0,0-.79.19L20.43,37a6.34,6.34,0,0,1-2.34,0,2.56,2.56,0,0,1-1.24-.61l-.06-.07.08,0A3,3,0,0,1,18.36,36a5.23,5.23,0,0,1,.92.13,7.27,7.27,0,0,0,.92.13,2.55,2.55,0,0,0,1-.08.72.72,0,0,0,.46-.51c0-.09,0-.11,0-.12s0,0-.13.06a1.73,1.73,0,0,1-1.12.27,6,6,0,0,1-2.06-.74,1.79,1.79,0,0,0-1.15-.21,2.7,2.7,0,0,0-1.14.44l0,0a2,2,0,0,1-1.35.11,1.64,1.64,0,0,0,.41.55,1,1,0,0,0,.75.17.12.12,0,0,1,.1,0,.08.08,0,0,1,0,.1,1.66,1.66,0,0,0,.19,1.17,2.3,2.3,0,0,0,1,.78,2.63,2.63,0,0,0,2,0,11.77,11.77,0,0,0,1.25-.58,4.5,4.5,0,0,1,1.41-.58.38.38,0,0,1,.32.19.51.51,0,0,1,.05.22.3.3,0,0,1-.05.19c-.13.23-.36.34-1,.5a2.8,2.8,0,0,0-1.47.78,1.11,1.11,0,0,0-.2.71,2.18,2.18,0,0,0,.23,1,9.9,9.9,0,0,0,.63,1.08l.28.46a1.4,1.4,0,0,1,.39-.72.11.11,0,0,1,.1,0,.11.11,0,0,1,.08.07,9.11,9.11,0,0,0,1.8,2.73l.85.81.49.47s.47-.47.47-.47l.85-.81a9.11,9.11,0,0,0,1.8-2.73.11.11,0,0,1,.08-.07.1.1,0,0,1,.1,0,1.4,1.4,0,0,1,.39.72l.28-.46a9.9,9.9,0,0,0,.63-1.08,2.18,2.18,0,0,0,.23-1,1.11,1.11,0,0,0-.2-.71,2.8,2.8,0,0,0-1.47-.78c-.65-.16-.88-.27-1-.5a.38.38,0,0,1-.05-.19.51.51,0,0,1,.05-.22.36.36,0,0,1,.32-.19,4.41,4.41,0,0,1,1.41.58,11.77,11.77,0,0,0,1.25.58,2.63,2.63,0,0,0,2,0,2.22,2.22,0,0,0,1-.78,1.61,1.61,0,0,0,.2-1.17.08.08,0,0,1,0-.1.12.12,0,0,1,.1,0,1,1,0,0,0,.75-.17,1.64,1.64,0,0,0,.41-.55,2,2,0,0,1-1.35-.11l0,0a2.7,2.7,0,0,0-1.14-.44A1.79,1.79,0,0,0,30.09,35.13Z"/><path class="cls-2" d="M34.07,13.43a.19.19,0,0,0-.06.13.24.24,0,0,0,.07.16l.31.31.31.31a.2.2,0,0,0,.29,0,.18.18,0,0,0,0-.27l-.33-.34-.34-.33A.18.18,0,0,0,34.07,13.43Z"/><path class="cls-2" d="M14.08,13.41l-.34.33-.33.34a.24.24,0,0,0-.05.13.17.17,0,0,0,.07.14.2.2,0,0,0,.29,0L14,14l.31-.31a.23.23,0,0,0,.07-.15.2.2,0,0,0-.06-.14A.18.18,0,0,0,14.08,13.41Z"/><path class="cls-2" d="M34.7,34.08l-.31.31-.31.31a.21.21,0,0,0-.07.15.2.2,0,0,0,.06.14.17.17,0,0,0,.27,0l.34-.33.33-.34a.18.18,0,0,0,.05-.13.16.16,0,0,0-.07-.14A.21.21,0,0,0,34.7,34.08Z"/><path class="cls-2" d="M13.43,34.07a.16.16,0,0,0-.07.14.24.24,0,0,0,.05.13l.33.34.34.33a.17.17,0,0,0,.27,0,.2.2,0,0,0,.06-.14.21.21,0,0,0-.07-.15L14,34.39l-.31-.31A.21.21,0,0,0,13.43,34.07Z"/><path class="cls-2" d="M15.29,21.92V26a.48.48,0,0,0,.48.49h4.52a.38.38,0,1,0,0-.76H16.36a.45.45,0,1,1,0-.9h3.93a.38.38,0,0,0,.38-.38.39.39,0,0,0-.38-.38H16.36a.45.45,0,1,1,0-.9h3.93a.38.38,0,0,0,.38-.38.39.39,0,0,0-.38-.38h-4a.25.25,0,0,1-.25-.25v-.23a.37.37,0,0,0-.37-.38A.38.38,0,0,0,15.29,21.92Z"/><path class="cls-2" d="M32.65,21.92v.23a.25.25,0,0,1-.25.25h-4a.39.39,0,0,0-.38.38.38.38,0,0,0,.38.38h3.92a.45.45,0,0,1,0,.9H28.41a.39.39,0,0,0-.38.38.38.38,0,0,0,.38.38h3.92a.45.45,0,1,1,0,.9H28.41a.38.38,0,0,0,0,.76h4.5A.49.49,0,0,0,33.4,26V21.92a.38.38,0,1,0-.75,0Z"/><path class="cls-2" d="M15.77,27.45a.48.48,0,0,0-.48.49v4.7a.38.38,0,0,0,.38.38.37.37,0,0,0,.37-.38V28.47a.31.31,0,0,1,.3-.3h16a.31.31,0,0,1,.3.3v4.17a.38.38,0,1,0,.75,0v-4.7a.49.49,0,0,0-.49-.49Z"/><path class="cls-2" d="M19.31,29a.49.49,0,0,0-.48.49v1.35a.49.49,0,0,0,.48.49h4.3a.24.24,0,0,1,.24.24v.5a.25.25,0,0,1-.24.25H18.07a.3.3,0,0,1-.3-.3V29.52a.38.38,0,1,0-.76,0v3a.48.48,0,0,0,.49.48h6.11a.25.25,0,0,1,.24.25v.56a.25.25,0,0,1-.24.25H20.14a.37.37,0,0,0-.38.37.36.36,0,0,0,.38.35h4a.47.47,0,0,0,.49-.47V33.28a.25.25,0,0,1,.24-.25h6.32a.48.48,0,0,0,.49-.48v-3a.38.38,0,0,0-.76,0v2.53a.3.3,0,0,1-.3.3H24.85a.25.25,0,0,1-.24-.25v-.5a.24.24,0,0,1,.24-.24h4.5a.49.49,0,0,0,.49-.49V29.52a.49.49,0,0,0-.49-.49Zm.28,1.17a.41.41,0,0,1,.41-.42h8.67a.42.42,0,0,1,0,.84H20A.41.41,0,0,1,19.59,30.2Z"/><path class="cls-2" d="M23.79,13.91v1.16a.23.23,0,0,1-.23.24H15.77a.48.48,0,0,0-.48.49v4.1a.38.38,0,0,0,.38.38A.37.37,0,0,0,16,19.9V16.36a.3.3,0,0,1,.3-.29h4.5a.25.25,0,0,1,.25.24V19.9a.38.38,0,0,0,.38.38.37.37,0,0,0,.37-.38V16.31a.24.24,0,0,1,.21-.24h4.41a.25.25,0,0,1,.28.24V19.9a.38.38,0,1,0,.76,0V16.31a.24.24,0,0,1,.24-.24h4.61a.3.3,0,0,1,.3.29V19.9a.38.38,0,1,0,.75,0V15.8a.49.49,0,0,0-.49-.49H24.79a.24.24,0,0,1-.24-.24V13.91a.38.38,0,0,0-.76,0Z"/><path class="cls-2" d="M26.06,24.12l-1.74.94c-.05,0-1.28-.65-1.8-.94a.42.42,0,0,0-.27,0h0a.36.36,0,0,0-.22.18.37.37,0,0,0,.15.49l1.32.71s-1.32.75-1.32.75a.36.36,0,0,0-.15.49.38.38,0,0,0,.22.17.32.32,0,0,0,.27,0l1.74-.94s1.28.66,1.8.94a.36.36,0,0,0,.49-.14.35.35,0,0,0,0-.28.36.36,0,0,0-.17-.21l-1.33-.72s1.33-.74,1.33-.74a.38.38,0,0,0,.17-.22.32.32,0,0,0,0-.27A.36.36,0,0,0,26.06,24.12Z"/><path class="cls-2" d="M26.06,20.75l-1.74.94c-.05,0-1.28-.66-1.8-.94a.32.32,0,0,0-.27,0h0a.38.38,0,0,0-.22.17.36.36,0,0,0,.15.49l1.32.72s-1.32.74-1.32.74a.37.37,0,0,0-.15.49.36.36,0,0,0,.22.18.42.42,0,0,0,.27,0l1.74-.94s1.28.65,1.8.94a.36.36,0,0,0,.49-.15.32.32,0,0,0,0-.27.38.38,0,0,0-.17-.22l-1.33-.71s1.33-.75,1.33-.75a.36.36,0,0,0,.17-.21.35.35,0,0,0,0-.28A.36.36,0,0,0,26.06,20.75Z"/><path class="cls-1" d="M240.76,23.1c3.69-1.13,6.93-3.27,8-4.74.16-.22.24-.37.36-.37a.27.27,0,0,1,.14.05c.25.1,1.72.69,1.66,1a.56.56,0,0,1-.39.37,1.82,1.82,0,0,0-.78.42,24.35,24.35,0,0,1-8.32,5A4,4,0,0,0,240.76,23.1Zm23.13-5.85c-3.47-.09-7.29-.14-11.1-.14s-7.59.05-11,.14l.35-2,6.21.14c.34-1.79.72-3.95,1.05-5.79L245,9.69l.34-1.94c1.51,0,3,.1,4.38.13.3-1.89.55-3.42.54-3.78a4.48,4.48,0,0,1,0-.62c0-.09.07-.15.22-.15h0c1.94.18,2.14.25,2.11.42a2.17,2.17,0,0,1-.26.49A3.55,3.55,0,0,0,252,5.37c-.07.42-.26,1.38-.47,2.53,1,0,1.94,0,2.9,0s1.92,0,2.9,0c.31-1.91.55-3.44.55-3.8a3.28,3.28,0,0,1,0-.62c0-.09.07-.15.22-.15h.05c1.93.18,2.14.25,2.11.42a2.68,2.68,0,0,1-.26.49,3.55,3.55,0,0,0-.37,1.13c-.07.42-.26,1.35-.47,2.51,1.46,0,3-.08,4.57-.13l-.34,1.94c-1.59,0-3.08-.07-4.55-.09-.31,1.74-.69,3.87-1,5.81,2.23,0,4.4-.07,6.48-.14Zm-8-1.81c.34-1.8.73-4,1.06-5.87h-1.72c-1.35,0-2.7,0-4.1,0-.3,1.71-.66,3.87-1,5.84ZM256,18a17.15,17.15,0,0,0,6.91,5.09,12.49,12.49,0,0,0-1.48,1.71,19.38,19.38,0,0,1-7-5.76Z"/><path class="cls-1" d="M269.1,17.06a17.8,17.8,0,0,1-4,7.12,3,3,0,0,0-.95-1.6,14.73,14.73,0,0,0,4-8.39l.7-4h10.42l-1.21,6.85Zm7.64-7.83a19.14,19.14,0,0,0-2.39-.13,21.1,21.1,0,0,0-2.47.13l.23-1.33a30.38,30.38,0,0,1-4.6,2.68,5.47,5.47,0,0,0-.93-1.65c3.62-1.35,6.69-3.7,7.59-5,.26-.37.12-.57.34-.57h.05c1.95.23,2.1.37,2.06.57a.51.51,0,0,1-.25.32,1,1,0,0,0-.23.17A9.87,9.87,0,0,0,281.45,8a5.76,5.76,0,0,0-1.36,1.72A16,16,0,0,1,277,7.8Zm-1.56,15.36c.1-.39.17-.78.26-1.15h-5.85c-.08.44-.13.91-.2,1.4H267.6c.45-2,.88-4.44,1.1-5.7l.14-.78H278l-.14.76c-.21,1.2-.62,3.53-.87,5.47ZM277,14.21h-7.19c-.08.44-.17,1-.27,1.4h7.22Zm-.84,5.62h-5.94L269.79,22h5.92c.14-.64.23-1.18.3-1.58Zm1.29-8.17h-7.19L270,12.91h7.19Zm-2.5-6.11a20.57,20.57,0,0,1-2.49,2.11c.75.07,1.46.12,2.19.12s1.43,0,2.21-.12A15.3,15.3,0,0,1,274.91,5.55ZM285.07,22c-.4,2.28-1.51,2.87-4.23,2.87-.35,0-.72,0-1.1,0a6.44,6.44,0,0,0-.3-1.93c.8.07,1.41.09,1.9.09,1.57,0,1.78-.39,2-1.42.44-2.36,1.14-6,1.74-9.43.69-3.92,1.26-7.44,1.22-8a4.06,4.06,0,0,1-.07-.62c0-.09.1-.15.25-.15h0c2.25.18,2.24.4,2.22.5a1.14,1.14,0,0,1-.28.46c-.32.44-.44.81-2.23,11-.43,2.41-.84,4.76-1.13,6.51Zm-5.54-2.24c.53-2.45,1.14-5.64,1.61-8.34s.82-4.89.82-5.3-.06-.52,0-.64.07-.13.22-.13h.05c2,.18,2,.4,2,.47a2.17,2.17,0,0,1-.28.47,2.1,2.1,0,0,0-.3.86l-.05.27c-.11.61-.47,2.5-.87,4.81s-.88,5.1-1.23,7.53Z"/><path class="cls-1" d="M309.08,24c-3.46-.1-7.16-.15-10.85-.15s-7.35.05-10.75.15l.34-1.92c3.09.13,6.37.18,9.71.18l.49-2.75c-2.46,0-4.9.05-7.26.1l.32-1.82c2.34.1,4.76.12,7.21.15a6.4,6.4,0,0,0,.19-2.17h-1.77c.34-1.49.69-3.33,1-5.05h-3a11,11,0,0,1-4.57,6,4.59,4.59,0,0,0-1.07-1.45A8.66,8.66,0,0,0,293,10.77c-1.09,0-2.15.05-3.24.1L290,9.13c.59,0,1.14.07,1.7.1s1.13,0,1.69,0c.25-1,.45-2.14.68-3.44l-2.64.07.3-1.72c2,.13,3.75.18,5.59.18s3.72,0,5.93-.18L303,5.91c-.92,0-1.8-.07-2.66-.07l-.61,3.44c1.09,0,2.2-.08,3.34-.15l-.3,1.74c-1.12,0-2.2-.07-3.28-.1-.25,1.6-.52,3.27-.72,4.64.25,0,1.3.15,1.93.25.16,0,.2.1.18.19a1.17,1.17,0,0,1-.23.47,4.66,4.66,0,0,0-.48,1.65c2.53,0,5.07-.08,7.53-.15l-.32,1.82c-2.46-.08-5-.1-7.49-.1-.15.86-.33,1.84-.46,2.75,3.39,0,6.76-.08,10-.18ZM298.62,5.79H295.8c-.23,1.3-.43,2.46-.69,3.51H298Zm4.59,7.54c.27-1.11.61-2.88.89-4.5a26.62,26.62,0,0,0,.49-3.46c0-.34,0-.54,0-.66s.07-.1.16-.1h.13c1.69.17,1.95.2,1.91.45a2.73,2.73,0,0,1-.23.44,2.59,2.59,0,0,0-.31,1c-.1.57-.3,1.57-.5,2.7-.25,1.38-.5,3-.67,4.18Zm6,.93c-.35,1.94-1.2,2.58-3.7,2.58-.29,0-.64,0-1,0a4.26,4.26,0,0,0-.14-1.84c.7,0,1.23.1,1.62.1,1.13,0,1.3-.27,1.48-1.11.14-.68.39-2.08.66-3.6.46-2.63,1-5.68,1-6.22,0-.31,0-.51,0-.63s.07-.12.22-.12h.07c2,.17,2,.29,2,.46a1.43,1.43,0,0,1-.23.44c-.26.37-.29.42-1.08,4.89-.34,1.91-.68,4-.86,5Z"/><path class="cls-1" d="M331.87,17h-1c-1.19,4.64-2.31,6.13-5.43,7.83a3.28,3.28,0,0,0-.51-1.42c-3-.08-6-.08-7.48-.08-.06.52-.15,1-.21,1.5h-1.8c.71-3.29,1.38-7.12,1.76-9.23A20,20,0,0,1,315.66,17a4.69,4.69,0,0,0-.65-1.57A20.64,20.64,0,0,0,319.7,10c-1.11,0-2.29,0-3.48.1l.3-1.7c1.39.07,2.69.1,4,.12a17.26,17.26,0,0,0,.89-2h-1.63a15.07,15.07,0,0,1-1.88,1.79,2.34,2.34,0,0,0-1-1.22A9,9,0,0,0,319.78,4c.2-.47.19-.67.38-.67h.08a14.18,14.18,0,0,1,1.47.42c.14,0,.2.13.18.25a.47.47,0,0,1-.25.29,3.46,3.46,0,0,0-.79.84l2.36,0c1.64,0,3.73,0,5.59-.12l-.28,1.62c-1.66-.07-3.72-.1-5.46-.1-.26.64-.55,1.3-.89,2,2.09,0,4.18,0,6.68-.15l-.3,1.7c-2.2-.05-4.11-.1-6-.1h-1.21A24.87,24.87,0,0,1,320,12.2h2.68a8.07,8.07,0,0,0,.6-1.3c.18-.49.13-.77.33-.77h.05a15.52,15.52,0,0,1,1.57.42c.14,0,.2.12.18.22a.65.65,0,0,1-.31.37,2.77,2.77,0,0,0-.8,1c1.08,0,2.3-.05,3.5-.07l-.27,1.57-3.8-.07-.3,1.74,3.35-.07-.27,1.49-3.32-.07-.32,1.81,3.35-.07-.26,1.5-3.33-.07-.36,2,3.63-.07-.2,1.1c2-1.08,2.81-2.43,3.64-5.89h-1.37l2.25-12.79h7.3L335.21,17h-1.79l-.93,5.25c-.08.47,0,.54.31.62l.39,0c.83,0,.9-.1,1.63-2.85a5,5,0,0,0,1.33.84c-1,3.07-1.16,3.51-3.35,3.51-1.74,0-2.16-.42-1.89-2ZM321,19.83h-3c-.11.66-.24,1.4-.34,2.07h3Zm.56-3.14c-.61,0-1.23,0-1.74,0H318.5c-.08.59-.19,1.21-.3,1.87h3Zm.55-3.12h-3.05l-.31,1.79h3ZM334.28,13h-4l-.44,2.5h4Zm.66-3.76h-4l-.41,2.33h4Zm.61-3.44h-4l-.35,2h4Z"/><path class="cls-1" d="M350.61,13.62h-3.56c-1.29,5.62-3.37,9.33-9.89,11.22a4.09,4.09,0,0,0-.66-1.94c5.82-1.4,7.54-4.47,8.65-9.26-2.11,0-4.23.08-6.43.13l.36-2c3.2.09,6.25.17,9.3.17.23-1.2.48-2.61.71-3.91a34.06,34.06,0,0,0,.57-3.92,4.72,4.72,0,0,1,0-.64c0-.1.07-.13.22-.13h.08c2.23.18,2.25.32,2.23.45a2.4,2.4,0,0,1-.26.49,1.71,1.71,0,0,0-.35.86l-.25,1.4c-.25,1.44-.62,3.53-.92,5.4,3.09,0,6.22,0,9.6-.17l-.35,2c-2.45-.08-4.79-.13-7.1-.13L351.22,21c-.19,1.06.13,1.35,2.49,1.35,2.62,0,2.82-.15,4.06-4.93a6.9,6.9,0,0,0,1.64,1c-1.85,5.75-2.32,5.77-6.18,5.77-.63,0-1.27,0-2-.07-1.51-.1-2.27-1.08-2-2.73Zm-5.76-2.43a20.5,20.5,0,0,0-3.26-5.6l1.63-1a27.06,27.06,0,0,1,3.5,5.5Zm12.37-6.26c.19-.37.23-.59.42-.59a.19.19,0,0,1,.12,0c1.78.63,1.8.83,1.78.93a.67.67,0,0,1-.37.39,2.36,2.36,0,0,0-.77.61,33.68,33.68,0,0,1-4.65,5.11,4.6,4.6,0,0,0-1.21-1.35A17.73,17.73,0,0,0,357.22,4.93Z"/><path class="cls-1" d="M383.38,11.39c-3.77-.1-8.11-.1-12.33-.1h-5l-.46,2.6c-.93,5.3-2.15,8-4.68,11a4.57,4.57,0,0,0-1.18-1.35c2.09-2.38,3.25-4.79,4.1-9.6l.72-4.12h5.75a9.42,9.42,0,0,0-1-2.51l1.7-.49a14.1,14.1,0,0,1,1.14,3h3.17A8.94,8.94,0,0,0,377,7.31c.16-.39.21-.54.36-.54a.21.21,0,0,1,.12,0,11.47,11.47,0,0,1,1.5.42q.21.06.18.21a.6.6,0,0,1-.31.35,2.76,2.76,0,0,0-.62.61,13.42,13.42,0,0,1-1.1,1.35c2.24,0,4.44-.1,6.54-.17Zm-1.65,12.67c-2.66-.06-6.46-.1-10.12-.1-3,0-5.87,0-7.92.1l.32-1.82c2.07.1,4.71.15,7.73.15.17-1,.36-1.9.51-2.75-1.5,0-3,0-4.59.12L368,18c1.56.1,3,.15,4.56.17.15-.83.31-1.59.43-2.28h-4.22a20.55,20.55,0,0,1-2.67,3A3.61,3.61,0,0,0,365,17.57a11.56,11.56,0,0,0,3.67-4.76c.21-.64.26-.78.4-.78a.39.39,0,0,1,.15,0c.52.12,1.15.27,1.55.39.16.08.21.17.19.3a.6.6,0,0,1-.28.36,3,3,0,0,0-1,1.26h3.51a12.55,12.55,0,0,0,.19-1.92,3.62,3.62,0,0,1-.06-.61c0-.1.1-.15.24-.15h0a14.79,14.79,0,0,1,1.92.3c.14,0,.2.09.18.22a1.61,1.61,0,0,1-.28.44,4,4,0,0,0-.55,1.72c2.31,0,5,0,6.7-.1l-.3,1.72c-1.66-.05-4.36-.08-6.69-.08l-.4,2.26c1.72,0,3.74-.07,5.63-.17l-.31,1.77c-1.88-.08-3.89-.12-5.58-.12l-.49,2.75c3,0,6.35-.08,8.57-.15Zm1.18-17.24c-2.59-.07-5.43-.12-8.28-.12s-5.73,0-8.44.12L366.51,5c2.33.13,4.53.17,7,.2a7.24,7.24,0,0,0,.09-1.08,4.47,4.47,0,0,1,0-.66c0-.07.07-.13.22-.13h.07c1.84.15,2.15.23,2.11.42a1.14,1.14,0,0,1-.28.49,2.29,2.29,0,0,0-.34,1c2.58,0,5.41-.07,7.87-.2Z"/><path class="cls-1" d="M405.24,18.82c-2.54-.07-5.24-.12-7.79-.12,1.72,1.67,4.22,2.65,8,3.24a6.46,6.46,0,0,0-1.51,1.8c-3.82-.91-6.49-2.36-8.31-4.82-.35,2.12-.7,4.25-1,5.92h-1.91c.36-1.67.76-3.78,1.13-5.89a20.81,20.81,0,0,1-9.71,4.81,4.58,4.58,0,0,0-.81-1.69,19.3,19.3,0,0,0,8.75-3.37l-7.49.12.31-1.71c3.05.1,6.2.17,9.27.17l.28-1.57c-2.33,0-4.7,0-6.7.09l.28-1.59c1,0,2.08.07,3.2.1s2.31,0,3.46,0l.25-1.45c-2.55,0-5.26.05-8.24.12l.29-1.64c2,.07,3.86.09,5.59.14a8.7,8.7,0,0,0-1.39-1.71l1.58-.59a9.4,9.4,0,0,1,1.65,2.33c1,0,2.06,0,3.1,0a8.38,8.38,0,0,0,1.64-1.81c.24-.37.21-.49.38-.49l.12,0a7.82,7.82,0,0,1,1.44.37c.13.05.19.12.18.22a.68.68,0,0,1-.3.32,2.4,2.4,0,0,0-.67.57c-.24.24-.59.58-.85.8,1.79,0,3.81-.07,6-.14L405.15,13c-3.12-.07-5.89-.12-8.52-.12l-.25,1.45c2.38,0,4.89,0,7.07-.15l-.28,1.59c-2.18-.07-4.65-.09-7-.09l-.28,1.57c3.15,0,6.45-.07,9.68-.17Zm1.67-9.5c-3.47-.09-6.92-.12-10.36-.12s-6.86,0-10.26.12l.31-1.76c1.22,0,2.44.07,3.67.1s2.45,0,3.65,0c.12-.55.21-1.08.31-1.62a16.09,16.09,0,0,0,.25-2,5.4,5.4,0,0,1,0-.62c0-.09.07-.15.22-.15h.07c1.83.1,1.9.28,1.87.42a2.5,2.5,0,0,1-.22.44,10.89,10.89,0,0,0-.65,2.41c-.06.34-.1.71-.17,1.13h2.25c.12-.54.22-1.1.31-1.62a13.74,13.74,0,0,0,.26-2,5.4,5.4,0,0,1,0-.62c0-.09.08-.15.22-.15h.08c1.82.1,1.89.28,1.86.42a1.59,1.59,0,0,1-.22.44,12.11,12.11,0,0,0-.65,2.41c-.06.34-.09.69-.17,1.11,2.54,0,5.07-.08,7.66-.15Zm-16-1.74A10.57,10.57,0,0,0,389,4.42l1.46-.67a11.05,11.05,0,0,1,2.08,3.12Zm12.71-3.31c.22-.42.22-.54.37-.54l.12,0c1,.18,1.65.39,1.61.62a.66.66,0,0,1-.31.34,2.56,2.56,0,0,0-.73.66,21.8,21.8,0,0,1-2.12,2.26,8.17,8.17,0,0,0-1.35-.69A10.71,10.71,0,0,0,403.58,4.27Z"/><path class="cls-1" d="M259.15,47.17c-2.25-.05-5.38-.08-8.38-.1a8.21,8.21,0,0,0,1.76,3.1,10.19,10.19,0,0,0,3.35-2.38c.13-.18.18-.28.28-.28s1.79.85,1.74,1.14c0,.1-.13.18-.32.23a2.66,2.66,0,0,0-.79.36c-.91.6-1.92,1.2-3.13,1.89a14.58,14.58,0,0,0,5.19,2,14.77,14.77,0,0,0-1.28,1.84c-4.82-1.35-7.32-3.13-8.72-7.87l-3,0L245,52a49.07,49.07,0,0,0,4.84-1l-.3,1.74c-2.86.65-5.42,1.22-7.5,1.53a3,3,0,0,0-1.06.44,1,1,0,0,1-.48.23c-.31,0-.77-1.81-.69-2.25,0-.13.18-.16.51-.16s1.52-.08,2.79-.23l.92-5.18h-3.32a23.33,23.33,0,0,1-4.13,7.87,5.16,5.16,0,0,0-1.08-1.71c2.73-3.13,3.85-7.1,4.81-12.56l1.28-7.25h18.68l-1,5.49H242.55l-.34,1.92c-.29,1.65-.62,3.21-1,4.71H246c.18-.85.33-1.74.49-2.62l-4,.11.3-1.74c1.19.05,2.71.11,3.92.13a6.26,6.26,0,0,0,.13-1.5,4.09,4.09,0,0,1-.06-.65c0-.1.1-.15.26-.15h0c2.14.18,2.11.36,2.09.46a1.71,1.71,0,0,1-.29.5,1.56,1.56,0,0,0-.32.8l-.11.59h4.33a9.42,9.42,0,0,0,.17-1.55,4.84,4.84,0,0,1,0-.65c0-.1.08-.15.23-.15h.05c2.15.18,2.12.36,2.1.46a2.09,2.09,0,0,1-.3.5,1.65,1.65,0,0,0-.32.8l-.1.57c1.48,0,3-.08,4.56-.16l-.3,1.74c-1.5-.05-3.07-.08-4.55-.11-.12.57-.23,1.17-.34,1.82l-.14.77c2.07,0,4.1,0,5.66-.07Zm-1.08-12.12H243.23l-.4,2.25h14.84Zm-6,10.49c.18-.85.34-1.76.49-2.64-1.47,0-2.95,0-4.38,0l-.46,2.62Z"/><path class="cls-1" d="M262.83,54.94c1-5,2.43-12.9,3.27-17.64l.69-3.91h8.88l-1.37,7.77h-7l-.19,1.09c-.42,2.36-1.42,8.21-2.08,12.69Zm12-1.45c.36-1.61.73-3.37,1-5.1h-3.29a8.86,8.86,0,0,1-4.51,5.15A4.14,4.14,0,0,0,267,52a5.79,5.79,0,0,0,3.77-3.61c-1.06,0-2.29.06-3.38.11l.32-1.82,1.77.11c.59,0,1.21,0,1.78,0a12.49,12.49,0,0,0,.42-1.66c.05-.31.08-.62.14-1-.83,0-1.66,0-2.55.08l.32-1.82c2,.13,3.8.18,5.67.18s3.76,0,6-.18l-.31,1.82c-.91,0-1.75-.08-2.58-.08l-.47,2.64c1.15,0,2.32-.08,3.53-.16l-.32,1.82c-1.16-.05-2.32-.08-3.46-.11-.28,1.74-.53,3.5-.76,5.08Zm-1.73-15.56h-5.24l-.31,1.76h5.24Zm.54-3.09H268.4l-.31,1.71h5.24Zm3,9.33h-3.08c-.23,1.16-.32,1.81-.58,2.72h3.18ZM278,54.94a4.39,4.39,0,0,0-.34-2c.8.05,1.43.1,1.95.1,1.61,0,2.06-.36,2.27-1.53l1.81-10.31h-7.33l1.37-7.77h9.17l-3.23,18.37c-.52,2.9-2.3,3.18-5.2,3.18Zm6.26-17h-5.54l-.31,1.76h5.54Zm.55-3.09h-5.55l-.3,1.71h5.55Z"/><path class="cls-1" d="M290.75,37.1c.87,0,2.26.1,3.89.1,3.63,0,8.52-.13,11.84-.29.42,0,.51-.28.75-.28s2.06,1.4,2,1.66-.62.41-1.15,1.37a32.79,32.79,0,0,1-16.28,14.92,15.42,15.42,0,0,0-1.68-1.79c7.09-2.15,13.81-8.7,15.76-13.88-3.74.08-12.55.23-15.55.62Zm19.66-.47a1.94,1.94,0,0,1-2-2.38,3,3,0,0,1,2.8-2.39,2,2,0,0,1,2,2.39A3,3,0,0,1,310.41,36.63Zm.65-3.65a1.6,1.6,0,0,0-1.5,1.27,1,1,0,0,0,1.05,1.27,1.58,1.58,0,0,0,1.49-1.27A1,1,0,0,0,311.06,33Z"/><path class="cls-1" d="M326.72,52.14c.07-.23.13-.56.22-1h-1.76c-2.95,0-6.69.05-9.45.1-.06.36-.09.7-.12,1h-2.36c.51-2,1.39-6.65,2.07-10.54.39-2.2.71-4.17.88-5.28,1.21,0,2.87,0,4.65,0,3.92,0,8.51-.08,10.94-.18-.36,1.61-.9,4.35-1.39,7.17-.63,3.58-1.2,7.25-1.24,8.65Zm-8.85-2.82c3.05,0,6.85,0,9.45-.1.18-.91.4-2.13.63-3.47.47-2.64,1-5.7,1.28-7.38L318,38.44c-.31,1.43-.73,3.68-1.14,6-.3,1.68-.57,3.39-.81,4.87Z"/><path class="cls-1" d="M334.9,52.82c7.77-2.2,14.23-8.32,16.65-13.47-3.1.08-6.15.16-7.93.26a38.64,38.64,0,0,1-7.07,5.88A14,14,0,0,0,334.89,44c4.23-2.26,8.41-6.24,10-9.53.25-.55.18-.89.42-.89a.23.23,0,0,1,.12,0c.74.23,1.69.57,2.27.8.24.08.36.18.33.31s-.17.24-.42.34a2.4,2.4,0,0,0-1,.88c-.4.52-.78,1-1.18,1.55,1.95,0,4.94-.1,6.75-.23.58,0,.67-.28.83-.28a6.65,6.65,0,0,1,1.92,1.73c-.05.29-.68.47-1.22,1.33-4.08,6.52-8.64,11.11-17.2,14.58A21.13,21.13,0,0,0,334.9,52.82Zm20.67-15.57A17,17,0,0,0,353.64,35l1.2-.93a20.71,20.71,0,0,1,2.06,2.12Zm2.11-1.53a16.56,16.56,0,0,0-2-2.2l1.2-.93a15.78,15.78,0,0,1,2.1,2.07Z"/><path class="cls-1" d="M359.24,39.92c.62,0,1.83.08,3.33.08,4.3,0,10.94-.19,12.85-.29.39,0,.52-.28.75-.28a7.54,7.54,0,0,1,2.17,1.65c0,.21-.64.37-1.2,1.25-3.91,6-8.25,9.45-15.29,12a13.58,13.58,0,0,0-1.6-1.92c6.93-1.83,12.17-6,14.56-10.74-3.79,0-13.36.25-15.9.54Zm16.63-3.21c-.69-.05-1.95-.08-3.45-.08-3.58,0-8.45.13-10.18.26l.36-2.18c.64,0,1.75,0,3.12,0,3.6,0,8.8-.1,10.52-.28Z"/><path class="cls-1" d="M397.86,53.08c-.32-.86-.7-1.77-1.11-2.7-5.08.65-10.64,1.32-15.55,2a3.32,3.32,0,0,0-1.65.49,1.07,1.07,0,0,1-.4.21,9.12,9.12,0,0,1-.24-2.7v-.1c0-.11.05-.13.13-.13s.28.05.59.05h.07l2.94-.21c4-6.21,7.91-14,8.15-15.33,0-.21.05-.31.18-.31a.24.24,0,0,1,.13,0c2.64.72,2.83.8,2.8,1s-.17.26-.41.41a2.24,2.24,0,0,0-.77.83C391,39.3,387.8,45.2,385,49.81c3.58-.31,7.75-.75,10.89-1.21a42,42,0,0,0-2.41-4.43l2.08-.75A58.44,58.44,0,0,1,400.26,52Z"/></g></g></svg>