<?xml version="1.0" encoding="utf-8"?>
<!-- Generator: Adobe Illustrator 22.1.0, SVG Export Plug-In . SVG Version: 6.00 Build 0)  -->
<svg version="1.1" id="レイヤー_1" xmlns="http://www.w3.org/2000/svg" xmlns:xlink="http://www.w3.org/1999/xlink" x="0px"
	 y="0px" viewBox="0 0 317.9 44" style="enable-background:new 0 0 317.9 44;" xml:space="preserve">
<style type="text/css">
	.st0{fill:#FFFFFF;}
</style>
<g>
	<title>footer_logo</title>
	<g id="レイヤー_2_1_">
		<g id="レイヤー_1-2">
			<path class="st0" d="M75.1,4.1c0.7,0.9,1.3,1.9,1.8,3c0.1,0.2,0.2,0.2,0.4,0.2c0,0,0.1,0,0.1,0c0.5-0.4,0.9-0.9,1.3-1.5
				c0.1-0.1,0.1-0.2,0-0.4c-0.8-1-1.7-1.8-2.9-2.3c-0.5-0.2-1.1-0.4-1.7-0.4c-0.2,0-0.3,0.2-0.2,0.2C74.3,3.3,74.6,3.6,75.1,4.1z
				 M72.8,9.5c0.7,0.9,1.3,1.9,1.8,3c0,0.2,0.2,0.2,0.4,0.2c0,0,0.1,0,0.1-0.1c0.5-0.4,1-0.9,1.3-1.5c0.1-0.1,0.1-0.2,0-0.4
				c-0.8-1-1.8-1.8-2.9-2.3c-0.5-0.3-1.1-0.4-1.7-0.5c-0.2,0-0.2,0.1-0.1,0.2C72.1,8.7,72.4,9,72.8,9.5z M75.9,18.4
				C77,13.1,80,8.7,80.1,8.2c0,0-0.1-0.1-0.2-0.1s-0.1,0.1-0.3,0.4c-1.2,2.1-2.6,4.4-3.8,6.3c-2,3.2-2.3,3.3-2.8,3.5
				c-0.2,0.1-1.1,0.2-1.4,0.2c-0.2,0-0.2,0.1-0.1,0.2c0.2,0.1,0.5,0.2,0.8,0.3c0.4,0.1,0.7,0.3,1.1,0.5c0,0,0.9,3.6,1.3,5.4
				c0.1,0.5,0.5,0.3,0.8,0.2c0.1,0,1.5-1.5,1.6-2C76.8,22.6,75.6,20,75.9,18.4z M98,25.1c-3.4-2.2-9.7-6-10.6-12.5
				c0-0.1,0-0.2,0.2-0.2h6.5c0.2,0,0.4-0.1,0.4-0.3c0,0,0,0,0-0.1c0-0.4,0-7.8,0-7.9c0-0.2-0.1-0.3-0.3-0.3c0,0,0,0,0,0
				c-1.1,0-4.2,0-5,0h-6.2c-0.6,0-0.7,0-1.1,0c-0.2,0-0.4,0.1-0.4,0.3s0,0.3,0,0.8c0,1.1,0.1,1.7,0.1,3.9c0,5.3-0.2,11-5.3,16.8
				c-0.1,0.1-0.1,0.2-0.1,0.2s0.1,0,0.2,0c1.5-0.7,2.8-1.8,3.8-3.1c2.4-2.8,3.8-6.4,3.9-10.1l0.1-2.4c0-0.6,0-4.6,0-5.3
				c0-0.3,0-0.3,0.3-0.3h6.8c0.2,0,0.3,0.1,0.3,0.3c0,0.6,0,6.2,0,6.6s-0.1,0.2-0.4,0.2H87c-0.2,0-0.2,0-0.3,0.1c0,0.1,0,0.2,0,0.3
				c0,0.2,0,0.3,0,0.7c0.3,4.9,2.6,9.5,6.3,12.8c0.2,0.2,0.5,0.3,0.8,0.2c1.4-0.3,2.8-0.4,4.3-0.3C98.3,25.5,98.3,25.4,98,25.1z"/>
			<path class="st0" d="M153.7,17.5c-0.6-0.5-1.7-1.4-2.1-1.8s-0.4-0.2-0.5,0s-0.5,0.5-0.8,0.9s-0.4,0.5-0.6,0.5h-6.8
				c-0.2,0-0.2,0-0.2-0.3v-0.3c0-0.3,0-0.8,0-1.3c0.1,0-0.1,0,0.1,0c2-0.6,4.8-2,6-3.4c0.1-0.2,0.1-0.4,0-0.6h-0.4h-14.7
				c-0.1,0-0.2,0-0.2,0.1c0.1,0.2,0.2,0.3,0.3,0.5c0.1,0.1,0.1,0.1,0.3,0.1h11.2c0.1,0,0.3,0,0.3,0.1c-0.6,1.3-1.6,2.3-2.9,2.9l0,0
				v-0.2c0-0.2,0-0.2-0.1-0.2c-0.4-0.1-2.1-0.3-2.3-0.3s-0.1,0.1-0.1,0.2v2.4c0,0.4-0.1,0.3-0.3,0.3h-9.5c-0.1,0-0.2,0.1-0.1,0.2
				c0.1,0.1,0.5,0.4,0.6,0.5c0.1,0.1,0.2,0.1,0.3,0.1h8.6c0.2,0,0.3,0.1,0.3,0.3c0,0.4,0,5,0,5.5c0,0.4-0.2,0.4-0.4,0.4
				c-0.5,0-3.4-0.5-3.4-0.5s-0.1,0-0.1,0.1s0,0.1,0.1,0.1c0.9,0.4,1.7,1,2.4,1.6c0.8,0.7,0.6,0.9,0.9,0.9c1.7,0,2.6-0.5,2.8-1.6
				c0.1-0.7,0.1-4.5,0.1-6.5c0-0.2,0-0.3,0.2-0.3h10.7C154.1,17.9,153.9,17.7,153.7,17.5z M130.9,13c0.1,0,0.2-0.1,0.3-0.2
				c0.4-0.6,0.6-3.1,0.6-4.3h19.3c-0.1,1.3-0.3,3.6,0.1,4.3c0.1,0.1,0.2,0.2,0.3,0.2c0.7,0,1.4,0,2.1-0.3c0.2-0.1,0.3-0.2,0.2-0.4
				c0,0,0-0.1,0-0.1c-0.6-1.4-1.1-2.8-1.4-4.2c-0.1-0.5-0.2-1.1-0.3-1.7c0-0.2-0.4-0.2-0.5,0c-0.2,0.5-0.3,1-0.4,1.5h-19.5
				c-0.1-0.5-0.2-1-0.5-1.4c-0.1-0.2-0.2-0.2-0.3,0c-0.1,0.6-0.3,1.1-0.4,1.6c-0.5,1.4-1,2.8-1.8,4.1c-0.1,0.1-0.1,0.3,0,0.4
				c0,0,0.1,0,0.1,0.1C129.6,12.9,130.2,13,130.9,13z M139.9,3.2c0.4,1,0.7,2,0.8,3c0,0.2,0.2,0.3,0.4,0.2c0.6-0.2,1.1-0.5,1.6-0.9
				c0.1-0.1,0.1-0.2,0.1-0.3c-0.4-1.1-1.1-2-2-2.7c-0.4-0.4-0.9-0.6-1.4-0.8c-0.2,0-0.3,0.1-0.2,0.2C139.4,2.3,139.7,2.8,139.9,3.2
				L139.9,3.2z M133.6,4.1c0.6,0.9,1,1.9,1.3,2.9c0.1,0.2,0.3,0.2,0.4,0.2c0.5-0.3,1-0.6,1.4-1.1c0.1-0.1,0.1-0.2,0-0.3
				c-0.6-1-1.4-1.8-2.4-2.4c-0.5-0.3-1-0.5-1.5-0.6c-0.2,0-0.2,0.1-0.2,0.2C133,3.3,133.3,3.7,133.6,4.1L133.6,4.1z M144.6,7.7
				c1-0.7,1.9-1.4,2.8-2.1c0.9-0.7,1.7-1.5,2.5-2.3c0.1-0.1,0-0.2-0.1-0.3c-0.7-0.5-1.5-0.9-2.3-1.3c-0.2-0.1-0.2-0.1-0.3,0
				s-0.1,0-0.1,0.2c-0.7,2-1.6,3.9-2.7,5.6c-0.1,0.1-0.1,0.2-0.1,0.2S144.6,7.8,144.6,7.7L144.6,7.7z"/>
			<path class="st0" d="M124.8,10.1c0.2-0.1,0.2-0.2,0.1-0.4c-0.6-0.6-1.3-1.1-2.1-1.5c-0.3-0.2-0.6-0.3-0.8,0
				c-0.3,0.2-0.5,0.5-0.8,0.8c-0.3,0.4-0.6,0.4-1.8,0.4h-5c-0.2,0-0.4,0-0.4-0.2c0.3-2.1,0.7-6.1,0.7-6.3s-0.1-0.1-0.2-0.2l-3-0.3
				c-0.1,0-0.1,0-0.1,0.2s0,0.2,0,0.5c0.1,2,0.1,4.1-0.1,6.1c0,0.2,0,0.2-0.3,0.2h-10.3c0,0-0.1,0.1,0,0.1c0,0,0,0,0,0
				c0.1,0.1,0.3,0.4,0.4,0.5c0.1,0.1,0.2,0.2,0.3,0.1h9.6c0.2,0,0.1,0.1,0.1,0.2c-0.3,2.6-0.9,6.1-2.6,8.7c-1.9,2.8-4.6,5-7.8,6.2
				c-0.1,0.1-0.2,0.1-0.1,0.2c0.1,0.1,0.2,0.1,0.2,0c3.8-0.9,7.8-3.4,9.5-5.7c2.3-3.1,3.3-7.7,3.5-9.5c0-0.2,0.2-0.3,0.5-0.3h9.2
				C124,10.2,124.4,10.2,124.8,10.1z M127.4,24.7c-3.9-1.8-10.7-5.6-12-11.9c0-0.2-0.1-0.3-0.3-0.3s-0.2,0.4-0.2,1.1
				c0.6,5.4,4.5,9.7,7.2,11.8c0.2,0.2,0.5,0.3,0.8,0.1c1.4-0.4,2.9-0.6,4.4-0.5C127.6,25,127.6,24.9,127.4,24.7z"/>
			<path class="st0" d="M52,24.2c0.1,0.1,0.2,0.1,0.2,0s0-0.1-0.1-0.2c-1.3-1.7-2.4-3.6-3.2-5.6c-0.1-0.2-0.1-0.2-0.1-0.2
				s-0.2,0-0.3,0.1c-0.7,0.5-1.4,1-2.1,1.5c-0.1,0.1-0.2,0.2,0,0.3c0.8,0.8,1.7,1.5,2.7,2.2C50,22.9,51.5,23.9,52,24.2z M66.1,25.3
				c-0.6-0.4-1.8-1.4-2.2-1.6s-0.4-0.1-0.6,0.1s-1,1-1.2,1.2s-0.3,0.1-1.4,0.1h-4.2c-0.7,0-0.8-0.2-0.8-0.6s0-6.3,0-7.2
				c0-0.3,0.1-0.3,0.3-0.3h7.5c0.4,0,0.5-0.1,0.3-0.3s-1.8-1.5-2.1-1.7s-0.3-0.1-0.8,0.6c-0.2,0.2-0.4,0.4-0.6,0.6
				c-0.5,0.1-1.1,0.1-1.6,0h-2.7c-0.2,0-0.3,0-0.3-0.4v-3.5c0-0.3,0.2-0.2,0.4-0.2h3.6c0.3,0,0.4-0.2,0.2-0.4s-1.3-1-1.8-1.4
				c-0.3-0.2-0.4-0.1-0.6,0c-0.3,0.3-0.7,0.7-0.8,0.9s-0.4,0.2-1.6,0.2h-5.4c-0.1,0-0.1,0-0.1,0.1s0.4,0.4,0.4,0.5S50,12,50.1,12
				h2.7c0.2,0,0.4,0,0.4,0.2v3.5c0,0.3,0,0.5-0.4,0.5h-1.6c-1.7,0-4.9,0-5.9,0c-0.1,0-0.2,0.1-0.1,0.2c0.1,0.2,0.3,0.3,0.4,0.4
				c0.1,0.1,0.2,0.2,0.4,0.2h6.8c0.2,0,0.4,0,0.4,0.2s0,7,0,7.2s0,0.6-0.4,0.6h-10c-0.1,0-0.1,0-0.1,0.1s0.6,0.4,0.7,0.5
				c0.1,0.1,0.2,0.1,0.3,0.1H66C66.2,25.8,66.5,25.6,66.1,25.3z M60.1,18.2c-0.1-0.1-0.2-0.1-0.3-0.1s-0.1,0-0.1,0.2
				c-0.8,2-1.9,3.9-3.2,5.6c-0.1,0.1-0.1,0.2-0.1,0.2s0.1,0,0.2,0c0.5-0.3,2-1.3,3-2c0.9-0.7,1.8-1.4,2.7-2.2c0.1-0.1,0-0.2,0-0.3
				C61.6,19.2,60.9,18.7,60.1,18.2L60.1,18.2z M56.9,4.2c-0.1-0.2-0.2-0.4-0.2-0.6c0-0.1-0.1-0.2-0.2-0.1h-4.8
				c-0.2,0-0.2,0.1-0.3,0.3C50.8,6,47.9,12,40.7,15.4l0.4,0.1c9-2.6,12.7-10.3,13-11.2l0,0h1.9c1.6,4.8,5.1,8.7,9.7,10.8
				c0.2,0.1,0.4,0.1,0.6,0c1.1-0.5,2.2-0.9,3.4-1.1l0.1-0.2C66.9,13.6,59.8,9.9,56.9,4.2L56.9,4.2z"/>
			<path class="st0" d="M60.2,37.3c0,1.2,0,4,0.1,4.5c0,0.4,0.1,0.6,0.5,0.7c0.2,0,0.4,0,0.5,0s0.1,0,0.1,0.1s-0.1,0.1-0.2,0.1
				c-0.6,0-1.4,0-1.5,0s-0.9,0-1.2,0c-0.1,0-0.2,0-0.2-0.1s0-0.1,0.1-0.1c0.1,0,0.3,0,0.4,0c0.2-0.1,0.3-0.3,0.4-0.7
				c0.1-0.5,0.1-3.3,0.1-4.5v-2.2c0-1.9,0-2.8,0-3.2c0-0.4-0.1-0.6-0.5-0.7c-0.1,0-0.3,0-0.4,0c0,0-0.1,0-0.1-0.1s0.1-0.1,0.2-0.1
				c0.6,0,1.3,0,1.4,0h1.2c0.1,0,0.2,0,0.2,0.1c0,0,0,0.1-0.1,0.1c0,0,0,0,0,0c-0.1,0-0.2,0-0.3,0c-0.3,0.1-0.5,0.3-0.5,0.7
				c0,0.4,0,1.3,0,3.2L60.2,37.3z"/>
			<path class="st0" d="M72.5,30.4c0.1-0.3,0.2-0.4,0.2-0.4s0.1,0,0.2,0.4s1.8,4.7,2.5,6.3c0.4,0.9,0.7,1.1,0.9,1.2
				c0.1,0,0.3,0.1,0.4,0.1c0.1,0,0.1,0,0.1,0.1c0,0.1-0.1,0.1-0.2,0.1s-0.7,0-1.4,0c-0.1,0-0.1,0-0.2,0c-0.1,0-0.1-0.1-0.1-0.1
				c0-0.1-0.1-0.2-0.1-0.3l-1-2.5c0,0,0-0.1-0.1-0.1h-2.3c0,0-0.1,0-0.1,0.1l-0.6,1.8c-0.1,0.2-0.1,0.5-0.2,0.7
				c0,0.2,0.2,0.3,0.4,0.3h0.1c0.1,0,0.1,0,0.1,0.1c0,0.1-0.1,0.1-0.2,0.1c-0.3,0-0.7,0-0.8,0s-0.7,0-1.2,0c-0.1,0-0.2,0-0.2-0.1
				c0-0.1,0-0.1,0.1-0.1h0.3c0.5-0.1,0.7-0.5,0.9-1L72.5,30.4z M73.6,34.6C73.6,34.6,73.6,34.6,73.6,34.6l-1-2.9
				c0-0.1-0.1-0.1-0.2,0l-0.9,2.8c0,0.1,0,0.1,0,0.1L73.6,34.6z"/>
			<path class="st0" d="M80.3,38c-0.1,0-0.7,0-1.2,0C79,38,79,38,79,37.9c0-0.1,0-0.1,0.1-0.1c0.1,0,0.3,0,0.4-0.1
				c0.3-0.1,0.3-0.4,0.3-1.3v-5.9c0-0.4,0-0.5,0.1-0.5s0.3,0.2,0.4,0.3s1.8,1.9,3.4,3.6c1.1,1.1,2.2,2.4,2.6,2.7l-0.1-5.3
				c0-0.7-0.1-0.9-0.4-1c-0.2,0-0.4,0-0.5,0c-0.1,0-0.1,0-0.1-0.1s0.1-0.1,0.2-0.1c0.5,0,1,0,1.1,0s0.5,0,0.9,0c0.1,0,0.2,0,0.2,0.1
				s0,0.1-0.1,0.1c-0.1,0-0.2,0-0.3,0c-0.3,0.1-0.4,0.3-0.4,0.9v6.1c0,0.7,0,0.7-0.1,0.7s-0.2-0.1-0.8-0.7c-0.1-0.1-1.7-1.6-2.8-2.8
				s-2.4-2.6-2.8-3l0.2,6.2c0.1,0,0.1,0.1,0,0.2C80.5,38,80.4,38.1,80.3,38z"/>
			<path class="st0" d="M103.2,37.6c1.1,0,1.5-0.2,1.7-0.5c0.1-0.2,0.2-0.4,0.2-0.6c0-0.1,0-0.2,0.1-0.2s0.1,0,0.1,0.2
				c0,0.4-0.1,0.8-0.2,1.2C105,38,105,38,104.8,38c-1.8,0-3.6-0.1-5.5-0.1c-0.1,0-0.2,0-0.2-0.1s0-0.1,0.2-0.3
				c1.6-2.3,3.2-4.7,4.7-7h-2.3c-0.5,0-1,0-1.5,0.2c-0.3,0.2-0.5,0.5-0.6,0.8c0,0.1-0.1,0.2-0.1,0.2s-0.1,0-0.1-0.1s0.2-1.1,0.2-1.4
				c0-0.1,0-0.2,0.1-0.2c0.2,0,0.3,0.1,0.5,0.1c1,0,1.5,0,1.9,0h3c0.2,0,0.2,0,0.2,0.1c0,0,0,0.1,0,0.1c-1.6,2.4-3.2,4.8-4.8,7.2
				L103.2,37.6z"/>
			<path class="st0" d="M124.1,36.6L124.1,36.6c0.3-1,1.3-4,1.7-5.3c0.1-0.2,0.1-0.4,0.1-0.7c0-0.2-0.1-0.3-0.6-0.3
				c0,0-0.1,0-0.1-0.1c0,0,0,0,0,0c0,0,0-0.1,0.2-0.1c0.6,0,1,0,1.1,0s0.5,0,0.9,0c0.1,0,0.2,0,0.2,0.1s0,0.1-0.1,0.1
				c-0.1,0-0.2,0-0.4,0c-0.3,0.1-0.5,0.5-0.7,1.1c-0.5,1.3-1.6,4.6-2,5.8c-0.3,0.8-0.3,0.9-0.4,0.9s-0.2-0.1-0.3-0.5l-2.1-5.8l0,0
				c-0.4,1-1.8,4.8-2.2,5.8c-0.2,0.4-0.2,0.6-0.3,0.6s-0.2-0.1-0.4-0.8l-1.9-6.2c-0.2-0.5-0.3-0.7-0.6-0.8c-0.2,0-0.3-0.1-0.5-0.1
				c0,0-0.1,0-0.1-0.1s0.1-0.1,0.2-0.1c0.6,0,1.2,0,1.3,0s0.6,0,1.1,0c0.2,0,0.2,0,0.2,0.1s0,0.1-0.1,0.1c-0.1,0-0.3,0-0.4,0.1
				c-0.1,0-0.1,0.1-0.1,0.2c0,0.3,0.1,0.7,0.2,1c0.2,0.7,1.3,4.5,1.4,5l0,0l2.3-5.9c0.2-0.4,0.2-0.5,0.3-0.5s0.1,0.1,0.3,0.5
				L124.1,36.6z"/>
			<path class="st0" d="M70.5,29.6h-0.8c-0.4,0-0.8,0-1.1,0c-0.7,0.1-1.4,0.4-2,0.9c-0.6,0.5-5.6,5.7-5.6,5.7c0.7,1,4.1,5.6,5,6.5
				c0.5,0.6,1.2,1.1,2,1.2c0.4,0,0.8,0.1,1.1,0.1h1c0.3,0,0.4,0,0.4-0.1s-0.1-0.1-0.2-0.1c-0.4,0-0.8-0.2-1.1-0.3
				c-1.1-0.5-2-1.3-2.8-2.2c-0.6-0.7-3.1-3.7-4.2-5c1-1,4.4-4.1,5-4.6c0.7-0.7,1.6-1.3,2.6-1.6c0.3-0.1,0.7-0.2,1-0.2
				c0.1,0,0.2,0,0.2-0.1S70.7,29.6,70.5,29.6z"/>
			<path class="st0" d="M92.9,30.4c0.1-0.3,0.2-0.4,0.2-0.4s0.1,0,0.2,0.4s1.8,4.7,2.5,6.3c0.4,0.9,0.7,1.1,0.9,1.2
				c0.1,0,0.3,0.1,0.4,0.1c0.1,0,0.1,0,0.1,0.1c0,0.1-0.1,0.1-0.2,0.1s-0.7,0-1.5,0c-0.1,0-0.1,0-0.2,0c-0.1,0-0.1-0.1-0.1-0.1
				c-0.1-0.1-0.1-0.2-0.1-0.3l-1-2.5c0,0,0-0.1-0.1-0.1h-2.3c-0.1,0-0.1,0-0.1,0.1l-0.6,1.8c-0.1,0.2-0.1,0.5-0.2,0.7
				c0,0.2,0.2,0.3,0.4,0.3h0.1c0.1,0,0.1,0,0.1,0.1c0,0.1-0.1,0.1-0.2,0.1c-0.3,0-0.7,0-0.8,0s-0.7,0-1.2,0c-0.1,0-0.2,0-0.2-0.1
				c0-0.1,0-0.1,0.1-0.1h0.3c0.5-0.1,0.7-0.5,0.9-1L92.9,30.4z M94,34.6C94,34.6,94,34.6,94,34.6l-1-2.9c-0.1-0.1-0.1-0.1-0.2,0
				l-1,2.8c0,0.1,0,0.1,0,0.1H94z"/>
			<path class="st0" d="M110.8,30.4c0.1-0.3,0.2-0.4,0.2-0.4s0.1,0,0.2,0.4s1.8,4.7,2.5,6.3c0.4,0.9,0.7,1.1,0.9,1.2
				c0.1,0,0.3,0.1,0.4,0.1c0.1,0,0.1,0,0.1,0.1c0,0.1-0.1,0.1-0.2,0.1s-0.7,0-1.4,0c-0.1,0-0.1,0-0.2,0c-0.1,0-0.1-0.1-0.1-0.1
				c0-0.1-0.1-0.2-0.1-0.3l-1-2.5c0,0-0.1-0.1-0.1-0.1h-2.3c-0.1,0-0.1,0-0.1,0.1l-0.6,1.8c-0.1,0.2-0.1,0.5-0.2,0.7
				c0,0.2,0.2,0.3,0.4,0.3h0.1c0.1,0,0.1,0,0.1,0.1c0,0.1-0.1,0.1-0.2,0.1c-0.3,0-0.7,0-0.8,0s-0.7,0-1.2,0c-0.1,0-0.2,0-0.2-0.1
				c0-0.1,0-0.1,0.1-0.1h0.3c0.5-0.1,0.7-0.5,0.9-1L110.8,30.4z M111.9,34.6C111.9,34.6,111.9,34.6,111.9,34.6l-1-2.9
				c0-0.1-0.1-0.1-0.2,0l-0.9,2.8c0,0.1,0,0.1,0,0.1H111.9z"/>
			<path class="st0" d="M131.6,30.4c0.1-0.3,0.2-0.4,0.2-0.4s0.1,0,0.2,0.4s1.8,4.7,2.5,6.3c0.4,0.9,0.7,1.1,0.9,1.2
				c0.1,0,0.3,0.1,0.4,0.1c0.1,0,0.1,0,0.1,0.1c0,0.1-0.1,0.1-0.2,0.1s-0.7,0-1.4,0c-0.1,0-0.1,0-0.2,0c-0.1,0-0.1-0.1-0.1-0.1
				c-0.1-0.1-0.1-0.2-0.1-0.3l-1-2.5c0,0-0.1-0.1-0.1-0.1h-2.2c-0.1,0-0.1,0-0.1,0.1l-0.6,1.8c-0.1,0.2-0.1,0.5-0.1,0.7
				c0,0.2,0.2,0.3,0.4,0.3h0.1c0.1,0,0.1,0,0.1,0.1c0,0.1-0.1,0.1-0.2,0.1c-0.3,0-0.7,0-0.8,0s-0.7,0-1.2,0c-0.1,0-0.2,0-0.2-0.1
				c0-0.1,0-0.1,0.1-0.1h0.3c0.5-0.1,0.7-0.5,0.9-1L131.6,30.4z M132.7,34.6C132.7,34.6,132.7,34.6,132.7,34.6l-1-2.9
				c-0.1-0.1-0.1-0.1-0.2,0l-0.9,2.8c0,0.1,0,0.1,0,0.1H132.7z"/>
			<path class="st0" d="M71,41c0-0.9,0-1,0-1.2s-0.1-0.3-0.3-0.3h-0.2l0,0c0,0,0,0,0.1,0h1.3c0.1,0,0.1,0,0.1,0l0,0h-0.2
				c-0.2,0-0.2,0.1-0.2,0.3c0,0.2,0,0.3,0,1.2v0.8c-0.1,0.5,0.1,1,0.4,1.4c0.2,0.2,0.6,0.3,0.9,0.3c0.4,0,0.7-0.1,0.9-0.4
				c0.3-0.4,0.4-0.9,0.3-1.4V41c0-0.9,0-1,0-1.2s-0.1-0.3-0.2-0.3h-0.2l0,0c0,0,0,0,0.1,0H75c0.1,0,0.1,0,0.1,0l0,0c0,0-0.1,0-0.1,0
				c-0.2,0-0.2,0.1-0.2,0.3c0,0.2,0,0.3,0,1.2v0.6c0.1,0.6-0.1,1.2-0.5,1.7c-0.3,0.3-0.8,0.4-1.2,0.4c-0.4,0-0.9-0.1-1.2-0.4
				c-0.4-0.4-0.6-1-0.5-1.5L71,41z"/>
			<path class="st0" d="M78.6,42.9c0,0.5,0.1,0.6,0.2,0.7h0.3l0,0c0,0,0,0-0.1,0c-0.3,0-0.6,0-0.6,0h-0.6c-0.1,0-0.1,0-0.1,0
				s0,0,0.1,0H78c0.1,0,0.2-0.2,0.2-0.7v-3.3c0-0.2,0-0.3,0.1-0.3s0.2,0.1,0.2,0.2l1.9,2c0.6,0.6,1.2,1.3,1.4,1.5l0-3
				c0-0.4,0-0.5-0.2-0.5h-0.3h-0.1c0,0,0.1,0,0.1,0h1.1c0.1,0,0.1,0,0.1,0s0,0-0.1,0c0,0-0.1,0-0.1,0c-0.2,0-0.2,0.2-0.2,0.5v3.3
				c0,0.4,0,0.4,0,0.4s-0.1-0.1-0.4-0.4c-0.1-0.1-0.9-0.9-1.5-1.5l-1.5-1.6V42.9z"/>
			<path class="st0" d="M87.2,42c0,0.5,0,1,0,1.2c0,0.2,0,0.3,0.2,0.3c0.1,0,0.2,0,0.3,0l0,0c0,0,0,0-0.1,0h-0.7h-0.6
				c-0.1,0-0.1,0-0.1,0l0,0c0.1,0,0.1,0,0.2,0c0.1,0,0.2-0.1,0.2-0.3c0-0.2,0-0.7,0-1.2v-1c0-0.9,0-1,0-1.2s-0.1-0.3-0.2-0.3h-0.2
				l0,0c0,0,0,0,0.1,0h1.2c0.1,0,0.1,0,0.1,0s0,0-0.1,0h-0.2c-0.2,0-0.2,0.1-0.2,0.3c0,0.2,0,0.3,0,1.2L87.2,42z"/>
			<path class="st0" d="M99.3,41c0-0.9,0-1,0-1.2s-0.1-0.3-0.3-0.3h-0.2l0,0c0,0,0,0,0.1,0h2.1h0.3c0,0,0,0,0.1,0s0,0,0,0
				s0,0.1,0,0.3c0,0.2,0,0.3,0,0.4s0,0.1,0,0.1s0,0,0-0.1c0-0.1,0-0.1,0-0.2c0-0.1-0.1-0.2-0.4-0.2H100l0,0v1.6v0.1h1
				c0.1,0,0.2,0,0.3-0.1c0,0,0.1-0.1,0.1-0.1s0,0,0,0s0,0.1-0.1,0.3s0,0.3,0,0.4c0,0,0,0.1,0,0.1s0,0,0,0c0-0.1,0-0.1,0-0.2
				c0-0.1-0.1-0.2-0.3-0.2c-0.2,0-0.8,0-1,0s0,0,0,0V43c0,0.4,0.1,0.5,0.7,0.5c0.2,0,0.5,0,0.7-0.1c0.2-0.1,0.2-0.2,0.3-0.4
				c0-0.1,0-0.1,0-0.1s0,0,0,0.1c0,0.2,0,0.4-0.1,0.6c0,0.2-0.1,0.2-0.3,0.2c-0.9,0-1.4,0-1.6,0h-0.6c-0.1,0-0.1,0-0.1,0l0,0
				c0.1,0,0.1,0,0.2,0c0.1,0,0.1-0.1,0.2-0.3c0-0.2,0-0.7,0-1.2L99.3,41z"/>
			<path class="st0" d="M106.7,41.6C106.7,41.6,106.7,41.6,106.7,41.6L106.7,41.6c0.2,0,0.4-0.1,0.6-0.2c0.3-0.2,0.5-0.5,0.4-0.8
				c0-0.7-0.5-1-1.1-1c-0.2,0-0.3,0-0.5,0c0,0-0.1,0-0.1,0.1s0,3.4,0,3.6c0,0.2,0,0.3,0.2,0.3c0.1,0,0.2,0,0.3,0h0.1c0,0,0,0-0.1,0
				h-0.7h-0.6c-0.1,0-0.1,0-0.1,0l0,0c0.1,0,0.1,0,0.2,0c0.1,0,0.1-0.1,0.2-0.3c0-0.2,0-0.7,0-1.2v-1c0-0.9,0-1,0-1.2
				s-0.1-0.3-0.2-0.3h-0.2l0,0c0,0,0,0,0.1,0h1.4c0.4,0,0.7,0.1,1.1,0.2c0.3,0.2,0.4,0.4,0.4,0.7c0,0.5-0.3,1-0.8,1.2
				c0,0,1,1.3,1.3,1.7c0.2,0.2,0.4,0.4,0.7,0.4c0.1,0,0.2,0,0.2,0h0.1c0,0,0,0-0.1,0h-0.4c-0.2,0-0.4,0-0.6-0.1
				c-0.3-0.2-0.6-0.5-0.8-0.8c-0.2-0.3-0.5-0.9-0.7-1C107,41.6,106.9,41.6,106.7,41.6C106.7,41.6,106.7,41.6,106.7,41.6z"/>
			<path class="st0" d="M112.5,43.6c-0.1,0-0.1-0.1-0.1-0.2c0-0.2,0-0.4,0-0.6c0-0.1,0-0.1,0-0.1s0,0,0,0.1c0,0.1,0,0.1,0,0.2
				c0.1,0.4,0.5,0.6,0.9,0.6c0.4,0,0.8-0.3,0.8-0.7c0,0,0,0,0-0.1c0-0.4-0.2-0.6-0.7-1l-0.3-0.2c-0.6-0.5-0.8-0.8-0.8-1.2
				c0-0.6,0.5-1,1.2-1c0.2,0,0.4,0,0.6,0c0.1,0,0.1,0,0.2,0c0.1,0,0.1,0,0.1,0c0,0.2,0,0.4,0,0.6c0,0.1,0,0.1,0,0.1s0,0,0-0.1
				c0-0.1,0-0.2-0.1-0.3c0-0.1-0.2-0.3-0.7-0.3c-0.4,0-0.7,0.2-0.7,0.6c0,0,0,0,0,0.1c0,0.3,0.2,0.5,0.7,1l0.2,0.1
				c0.7,0.5,0.9,0.9,0.9,1.3c0,0.4-0.2,0.8-0.5,1c-0.3,0.2-0.6,0.2-0.9,0.2C113,43.8,112.7,43.8,112.5,43.6z"/>
			<path class="st0" d="M119.6,42c0,0.5,0,1,0,1.2c0,0.2,0,0.3,0.2,0.3c0.1,0,0.2,0,0.3,0l0,0c0,0,0,0-0.1,0h-0.7h-0.6
				c-0.1,0-0.1,0-0.1,0l0,0c0.1,0,0.1,0,0.2,0c0.1,0,0.2-0.1,0.2-0.3c0-0.2,0-0.7,0-1.2v-1c0-0.9,0-1,0-1.2s-0.1-0.3-0.2-0.3h-0.2
				l0,0c0,0,0,0,0.1,0h1.2c0.1,0,0.1,0,0.1,0l0,0h-0.2c-0.2,0-0.2,0.1-0.2,0.3c0,0.2,0,0.3,0,1.2L119.6,42z"/>
			<path class="st0" d="M125.7,42c0,0.5,0,1,0,1.2c0,0.2,0,0.3,0.2,0.3c0.1,0,0.2,0,0.3,0l0,0c0,0,0,0-0.1,0h-0.7h-0.6
				c-0.1,0-0.1,0-0.1,0l0,0c0.1,0,0.1,0,0.2,0c0.1,0,0.1-0.1,0.2-0.3c0-0.2,0-0.7,0-1.2v-2.4h-0.9c-0.4,0-0.5,0.1-0.6,0.2
				c0,0.1-0.1,0.1-0.1,0.2c0,0,0,0.1-0.1,0.1s0,0,0,0s0.1-0.5,0.1-0.6c0,0,0-0.1,0.1-0.1c0.1,0,0.2,0,0.3,0.1h0.5h2.2
				c0.2,0,0.4,0,0.6-0.1c0,0,0,0,0,0.1s0,0.6,0,0.6c0,0.1,0,0.1,0,0.1s0,0,0-0.1V40c0-0.2-0.2-0.3-0.7-0.3h-0.7L125.7,42z"/>
			<path class="st0" d="M131.1,39.8c0.3,0.4,1,1.6,1.1,1.8c0.1-0.2,0.9-1.5,1-1.7c0.1-0.1,0.1-0.2,0.1-0.3c0-0.1,0-0.2-0.1-0.2
				c-0.1,0-0.1,0-0.1-0.1c0-0.1,0,0,0.1,0h1h0.1c0,0,0,0-0.1,0c-0.1,0-0.2,0-0.3,0.1c-0.1,0.1-0.2,0.2-0.3,0.3
				c-0.4,0.6-0.8,1.2-1.1,1.8c-0.1,0.2-0.1,0.4-0.1,0.6v0.5c0,0.1,0,0.3,0,0.6s0.1,0.3,0.2,0.3c0.1,0,0.2,0,0.3,0h0.1c0,0,0,0-0.1,0
				h-0.7h-0.6c-0.1,0-0.1,0-0.1,0s0,0,0.1,0c0.1,0,0.1,0,0.2,0c0.1,0,0.2-0.1,0.2-0.3c0-0.2,0-0.5,0-0.6v-0.4c0-0.2,0-0.4-0.1-0.6
				c-0.3-0.6-0.6-1.1-1-1.6c-0.1-0.2-0.3-0.3-0.4-0.4c-0.1-0.1-0.2-0.1-0.2-0.1H130c0,0,0,0,0.1,0h0.3
				C130.7,39.5,130.9,39.6,131.1,39.8z"/>
			<path class="st0" d="M93.4,43c0.3-0.8,1.1-2.8,1.3-3.2c0-0.1,0-0.1,0-0.2c0-0.1,0-0.1-0.1-0.1c-0.1,0-0.1,0-0.2,0h-0.1
				c0,0,0,0,0.1,0H95h0.5c0.1,0,0.1,0,0.1,0s0,0-0.1,0c-0.1,0-0.2,0-0.3,0.1c-0.1,0-0.2,0.2-0.3,0.5c-0.1,0.2-0.4,0.8-0.7,1.5
				c-0.3,0.7-0.6,1.4-0.8,1.7s-0.2,0.4-0.2,0.4s-0.1-0.1-0.2-0.3l-1.4-3.3c-0.1-0.3-0.2-0.5-0.4-0.7c-0.1,0-0.1-0.1-0.2-0.1
				c0,0,0,0,0-0.1c0,0,0.1,0,0.2,0c0.2,0,0.4,0.1,0.6,0.2c0.3,0.2,0.5,0.5,0.6,0.8L93.4,43z"/>
			<path class="st0" d="M21,29c0-0.2,0.1-0.3,0.3-0.3c0.2,0,0.3,0.1,0.3,0.3c0,0.2-0.1,0.3-0.3,0.3c0,0,0,0,0,0
				C21.2,29.3,21,29.2,21,29C21,29,21,29,21,29z"/>
			<path class="st0" d="M21,26.6c0-0.2,0.1-0.3,0.3-0.3c0.2,0,0.3,0.1,0.3,0.3c0,0.2-0.1,0.3-0.3,0.3c0,0,0,0,0,0
				C21.2,26.9,21,26.7,21,26.6C21,26.6,21,26.6,21,26.6z"/>
			<path class="st0" d="M21,27.8c0-0.2,0.1-0.3,0.3-0.3c0.2,0,0.3,0.1,0.3,0.3c0,0.2-0.1,0.3-0.3,0.3c0,0,0,0,0,0
				C21.2,28.1,21,27.9,21,27.8z"/>
			<path class="st0" d="M32.6,18.1c-0.2,0-0.3-0.1-0.4-0.2c0-0.2,0.1-0.3,0.2-0.4c0,0,0.1,0,0.1,0c0.2,0,0.3,0.1,0.4,0.2
				c0,0.2-0.1,0.3-0.2,0.4C32.7,18.1,32.6,18.1,32.6,18.1z"/>
			<path class="st0" d="M30.1,18.1c-0.2,0-0.3-0.1-0.3-0.3c0-0.2,0.1-0.3,0.3-0.3c0.2,0,0.3,0.1,0.3,0.3c0,0,0,0,0,0
				C30.4,17.9,30.3,18.1,30.1,18.1z"/>
			<path class="st0" d="M31.3,18.1c-0.2,0-0.3-0.1-0.3-0.3c0-0.2,0.1-0.3,0.3-0.3c0.2,0,0.3,0.1,0.3,0.3c0,0,0,0,0,0
				C31.6,17.9,31.5,18.1,31.3,18.1C31.3,18.1,31.3,18.1,31.3,18.1z"/>
			<path class="st0" d="M21.6,6.6c0,0.2-0.1,0.3-0.3,0.3c-0.2,0-0.3-0.1-0.3-0.3s0.1-0.3,0.3-0.3l0,0C21.5,6.3,21.6,6.4,21.6,6.6
				C21.6,6.6,21.6,6.6,21.6,6.6z"/>
			<path class="st0" d="M21.6,9c0,0.2-0.1,0.3-0.3,0.3C21.2,9.3,21,9.2,21,9c0-0.2,0.1-0.3,0.3-0.3l0,0C21.5,8.7,21.6,8.8,21.6,9z"
				/>
			<path class="st0" d="M21.6,7.8c0,0.2-0.1,0.3-0.3,0.3c-0.2,0-0.3-0.1-0.3-0.3s0.1-0.3,0.3-0.3l0,0C21.5,7.5,21.6,7.6,21.6,7.8z"
				/>
			<path class="st0" d="M10.1,17.5c0.2,0,0.3,0.1,0.3,0.3c0,0.2-0.1,0.3-0.3,0.3c-0.2,0-0.3-0.1-0.3-0.3c0,0,0,0,0,0
				C9.8,17.6,10,17.5,10.1,17.5z"/>
			<path class="st0" d="M12.6,17.5c0.2,0,0.3,0.1,0.3,0.3c0,0.2-0.1,0.3-0.3,0.3c-0.2,0-0.3-0.1-0.3-0.3c0,0,0,0,0,0
				C12.3,17.6,12.4,17.5,12.6,17.5C12.6,17.5,12.6,17.5,12.6,17.5z"/>
			<path class="st0" d="M11.3,17.5c0.2,0,0.3,0.1,0.3,0.3c0,0.2-0.1,0.3-0.3,0.3c-0.2,0-0.3-0.1-0.3-0.3c0,0,0,0,0,0
				C11,17.6,11.2,17.5,11.3,17.5C11.3,17.5,11.3,17.5,11.3,17.5z"/>
			<path class="st0" d="M3.6,17.8l0.2,0.1c0.2,0.1,0.4,0.3,0.5,0.5c0.3,0.3,0.5,0.6,0.8,0.9C5.6,19.7,6,20,6.4,20.2
				c-0.2,0.1-0.4,0.2-0.6,0.3c0.4,0.4,0.8,0.7,1.3,1c0.3,0.2,0.7,0.4,1,0.5c0.3,0.1,0.7,0.2,1,0.2c0.1,0.6,0.3,1.1,0.7,1.6
				c0.2,0.4,0.6,0.6,1,0.8c0.4,0.1,0.7,0.4,0.9,0.9c0.1,0.5,0.4,0.9,0.7,1.3c0.4,0.3,0.8,0.6,1.3,0.7c0.4,0.1,0.7,0.5,0.9,0.9
				c0.1,0.4,0.4,0.8,0.8,1c0.2,0.1,0.4,0.3,0.7,0.4c0.5,0.2,0.9,0.7,1.1,1.3c0.1,0.3,0.3,0.7,0.5,1c0.3,0.5,0.7,0.9,1.1,1.3
				c0.1-0.2,0.2-0.4,0.3-0.6c0.2,0.4,0.5,0.9,0.9,1.2c0.3,0.3,0.6,0.6,0.9,0.8c0.2,0.2,0.4,0.3,0.5,0.6c0,0.1,0.1,0.2,0.1,0.2
				c0,0,0,0,0,0s0,0,0,0s0.1-0.1,0.1-0.2c0.1-0.2,0.3-0.4,0.5-0.6c0.3-0.3,0.6-0.5,0.9-0.8c0.4-0.4,0.7-0.8,0.9-1.2
				c0.1,0.2,0.2,0.4,0.3,0.6c0.4-0.4,0.7-0.8,1-1.3c0.2-0.3,0.4-0.7,0.5-1c0.2-0.6,0.6-1,1.1-1.3c0.2-0.1,0.5-0.2,0.7-0.4
				c0.4-0.2,0.6-0.6,0.8-1c0.1-0.4,0.4-0.7,0.9-0.9c0.5-0.1,0.9-0.4,1.3-0.7c0.3-0.4,0.6-0.8,0.7-1.3c0.1-0.4,0.5-0.7,0.9-0.9
				c0.4-0.1,0.8-0.4,1-0.8c0.1-0.2,0.3-0.4,0.4-0.7c0.1-0.3,0.2-0.6,0.3-0.9c0.3,0,0.7-0.1,1-0.2c0.3-0.1,0.7-0.3,1-0.5
				c0.5-0.3,0.9-0.6,1.3-1c-0.2-0.1-0.4-0.2-0.6-0.3c0.4-0.2,0.9-0.5,1.2-0.9c0.3-0.3,0.6-0.6,0.8-0.9c0.2-0.2,0.3-0.4,0.5-0.5
				l0.2-0.1c0,0,0,0,0,0s0,0,0,0l-0.2-0.1c-0.2-0.1-0.4-0.3-0.5-0.5c-0.3-0.3-0.5-0.6-0.8-0.9c-0.4-0.4-0.8-0.7-1.2-0.9
				c0.2-0.1,0.4-0.2,0.6-0.3c-0.3-0.4-0.7-0.8-1.2-1.2c-0.3-0.2-0.7-0.4-1-0.5c-0.3-0.1-0.7-0.2-1-0.2c-0.1-0.3-0.2-0.6-0.3-0.9
				c-0.1-0.2-0.2-0.5-0.4-0.7c-0.2-0.4-0.6-0.6-1-0.8c-0.4-0.1-0.7-0.4-0.9-0.9c-0.1-0.5-0.4-0.9-0.7-1.3c-0.4-0.3-0.8-0.5-1.3-0.7
				c-0.4-0.1-0.7-0.5-0.9-0.9c-0.1-0.4-0.4-0.8-0.8-1C27.3,6.1,27,6,26.8,5.9c-0.5-0.2-0.9-0.7-1.1-1.3c-0.1-0.3-0.3-0.7-0.5-1
				c-0.3-0.5-0.6-0.9-1-1.3c-0.1,0.2-0.2,0.4-0.3,0.6c-0.2-0.4-0.5-0.9-0.9-1.2c-0.3-0.3-0.7-0.6-1-0.9c-0.2-0.2-0.4-0.3-0.5-0.6
				L21.4,0 M21.3,0L21.3,0l-0.1,0.2c-0.2,0.2-0.3,0.4-0.5,0.6c-0.3,0.3-0.6,0.5-0.9,0.8c-0.4,0.4-0.7,0.8-0.9,1.2
				c-0.1-0.2-0.2-0.4-0.3-0.6c-0.4,0.4-0.7,0.8-1.1,1.3c-0.2,0.3-0.4,0.7-0.5,1c-0.2,0.6-0.6,1-1.1,1.3c-0.2,0.1-0.5,0.2-0.7,0.4
				c-0.4,0.2-0.6,0.6-0.8,1c-0.1,0.4-0.5,0.7-0.9,0.9c-0.5,0.1-0.9,0.4-1.3,0.7C12,9.1,11.8,9.6,11.6,10c-0.1,0.4-0.5,0.7-0.9,0.9
				c-0.4,0.1-0.8,0.4-1,0.8c-0.3,0.5-0.6,1-0.7,1.6c-0.3,0-0.7,0.1-1,0.2c-0.3,0.1-0.7,0.3-1,0.5c-0.5,0.3-0.9,0.7-1.3,1.1
				c0.2,0.1,0.4,0.2,0.6,0.3c-0.4,0.2-0.9,0.5-1.2,0.9c-0.3,0.3-0.6,0.6-0.8,0.9c-0.2,0.2-0.3,0.4-0.5,0.5l-0.2,0.1l0,0L21.3,0z
				 M4.6,17.6c0.1-0.1,0.2-0.3,0.3-0.4c0.3-0.3,0.5-0.6,0.8-0.9c0.2-0.2,0.5-0.4,0.8-0.6c0.3-0.2,0.5-0.3,0.8-0.5
				C7.1,15.1,6.9,15,6.7,15c0.2-0.2,0.5-0.4,0.8-0.6C7.7,14.3,8,14.1,8.2,14c0.5-0.2,0.9-0.3,1.4-0.3c0-0.4,0.1-0.8,0.3-1.2
				c0.2-0.4,0.4-0.7,0.8-1c0.4-0.2,0.6-0.3,0.9-0.5c0.3-0.2,0.5-0.5,0.6-0.9c0.2-0.7,0.8-1.3,1.5-1.5C14,8.5,14.4,8.3,14.6,8
				c0.2-0.3,0.2-0.5,0.5-0.9c0.3-0.3,0.6-0.6,1-0.8c0.7-0.3,1.3-0.9,1.5-1.7c0.1-0.3,0.2-0.5,0.4-0.8c0.2-0.3,0.4-0.6,0.6-0.8
				c0,0.2,0.1,0.4,0.3,0.6c0.1-0.3,0.3-0.5,0.5-0.8c0.2-0.3,0.4-0.5,0.6-0.8c0.3-0.3,0.6-0.6,0.9-0.8c0.1-0.1,0.3-0.2,0.4-0.3
				c0,0,0.1,0,0.1,0c0.1,0,0.1,0,0.2,0.1c0.1,0.1,0.3,0.2,0.4,0.3c0.3,0.3,0.6,0.5,0.9,0.8C23,2.4,23.2,2.7,23.4,3
				c0.2,0.3,0.3,0.5,0.5,0.8c0.1-0.2,0.2-0.4,0.3-0.6c0.2,0.2,0.4,0.5,0.6,0.8c0.1,0.2,0.3,0.5,0.4,0.8c0.2,0.8,0.8,1.4,1.5,1.7
				c0.4,0.2,0.7,0.4,1,0.8c0.2,0.4,0.3,0.6,0.5,0.9c0.2,0.3,0.5,0.5,0.9,0.6c0.3,0.1,0.7,0.3,0.9,0.6c0.2,0.3,0.4,0.6,0.5,0.9
				c0.1,0.4,0.3,0.7,0.6,0.9c0.3,0.2,0.5,0.2,0.9,0.5c0.3,0.3,0.6,0.6,0.8,1c0.2,0.4,0.2,0.8,0.3,1.2c0.5,0,1,0.1,1.4,0.3
				c0.3,0.1,0.5,0.2,0.8,0.4c0.3,0.2,0.6,0.4,0.8,0.6c-0.2,0-0.4,0.1-0.6,0.3c0.3,0.1,0.6,0.3,0.8,0.5c0.2,0.2,0.5,0.4,0.8,0.6
				c0.3,0.3,0.6,0.6,0.8,0.9c0.1,0.1,0.2,0.3,0.3,0.4c0,0,0.1,0.1,0.1,0.2c0,0.1,0,0.1-0.1,0.2c-0.1,0.1-0.2,0.3-0.3,0.4
				c-0.3,0.3-0.5,0.6-0.8,0.9c-0.2,0.2-0.5,0.4-0.8,0.6s-0.5,0.3-0.8,0.5c0.2,0.1,0.4,0.2,0.6,0.3c-0.3,0.2-0.5,0.4-0.8,0.6
				c-0.2,0.1-0.5,0.3-0.8,0.4C34,21.8,33.5,21.9,33,22c0,0.4-0.1,0.8-0.3,1.2c-0.2,0.4-0.4,0.7-0.8,1c-0.4,0.2-0.6,0.3-0.9,0.5
				c-0.3,0.2-0.5,0.5-0.6,0.9c-0.2,0.7-0.8,1.3-1.5,1.5c-0.4,0.1-0.7,0.3-0.9,0.6c-0.2,0.3-0.2,0.5-0.5,0.9c-0.3,0.3-0.6,0.6-1,0.8
				c-0.7,0.3-1.3,0.9-1.5,1.7c-0.1,0.3-0.2,0.5-0.4,0.8c-0.2,0.3-0.4,0.6-0.6,0.8c0-0.2-0.1-0.4-0.3-0.6c-0.1,0.3-0.3,0.6-0.5,0.8
				c-0.2,0.3-0.4,0.5-0.6,0.8c-0.3,0.3-0.6,0.6-0.9,0.8c-0.1,0.1-0.3,0.2-0.4,0.3c-0.1,0-0.1,0.1-0.2,0.1c-0.1,0-0.1,0-0.2-0.1
				c-0.1-0.1-0.3-0.2-0.4-0.3c-0.3-0.3-0.6-0.5-0.9-0.8c-0.2-0.2-0.4-0.5-0.6-0.8c-0.2-0.3-0.3-0.5-0.5-0.8
				c-0.1,0.2-0.2,0.4-0.3,0.6c-0.2-0.2-0.4-0.5-0.6-0.8c-0.1-0.2-0.3-0.5-0.4-0.8c-0.2-0.8-0.8-1.4-1.5-1.7c-0.4-0.2-0.7-0.4-1-0.8
				c-0.2-0.4-0.3-0.6-0.5-0.9c-0.2-0.3-0.5-0.5-0.9-0.6c-0.3-0.1-0.7-0.3-0.9-0.5c-0.3-0.3-0.4-0.6-0.6-0.9c-0.1-0.4-0.3-0.7-0.6-1
				c-0.3-0.2-0.5-0.2-0.9-0.5c-0.3-0.3-0.6-0.6-0.8-1c-0.2-0.4-0.3-0.8-0.3-1.2c-0.5,0-1-0.1-1.4-0.3c-0.3-0.1-0.5-0.2-0.8-0.4
				c-0.3-0.2-0.6-0.4-0.8-0.6c0.2,0,0.4-0.1,0.6-0.3C7,20.1,6.7,20,6.5,19.8c-0.2-0.2-0.5-0.4-0.8-0.6c-0.3-0.3-0.6-0.6-0.8-0.9
				c-0.1-0.1-0.2-0.3-0.3-0.4c0,0,0-0.1,0-0.1C4.6,17.7,4.6,17.7,4.6,17.6z"/>
			<path class="st0" d="M21,2.5l-0.6,0.6c-0.6,0.6-1,1.3-1.3,2c0,0,0,0,0,0.1c0,0,0,0-0.1,0c-0.2-0.1-0.3-0.3-0.4-0.6l-0.2,0.3
				c-0.2,0.3-0.4,0.6-0.5,0.8c-0.1,0.2-0.2,0.5-0.2,0.7c0,0.2,0,0.4,0.1,0.5c0.3,0.3,0.7,0.5,1.1,0.6c0.5,0.1,0.6,0.2,0.7,0.4
				c0,0,0,0.1,0,0.1c0,0.1,0,0.1,0,0.2c0,0.1-0.1,0.1-0.2,0.1c-0.4-0.1-0.7-0.2-1-0.4c-0.3-0.2-0.6-0.3-0.9-0.4
				c-0.5-0.2-1-0.2-1.4,0c-0.3,0.1-0.5,0.3-0.7,0.6c-0.2,0.3-0.2,0.6-0.1,0.9c0,0,0,0.1,0,0.1c0,0-0.1,0-0.1,0c-0.2,0-0.4,0-0.6,0.1
				c-0.1,0.1-0.2,0.3-0.3,0.4c0.3-0.1,0.7-0.1,1,0.1l0,0c0.3,0.2,0.5,0.3,0.8,0.3c0.3,0,0.6,0,0.8-0.2c0.3-0.2,0.6-0.3,1-0.3
				c0.4,0,0.8,0,1.2,0.1l0.4,0.2c0.1,0.1,0.2,0.1,0.3,0.1c0.1,0,0.1,0,0.2,0c0,0,0-0.1,0-0.1c0-0.2-0.3-0.4-0.9-0.6
				C18.6,9,18,9,17.4,9.1c-0.5,0.1-1,0-1.5-0.2l0,0V8.9c0.3-0.2,0.6-0.4,0.9-0.4c0.6-0.1,1.1-0.1,1.7,0l0.8,0.2
				c0.2,0.1,0.4,0.1,0.6,0.1c0.2,0,0.3,0,0.5-0.1c0.1-0.1,0.1-0.2,0.1-0.2V7.9V7.5l0,0c-0.1-0.7-0.1-1.4,0-2.1
				c0.1-0.6,0.3-1.2,0.8-1.6h0.1c0.5,0.4,0.7,1,0.8,1.6c0.1,0.7,0.1,1.4,0,2.1l0,0v0.4v0.5c0,0.1,0,0.2,0.1,0.2
				c0.1,0.1,0.3,0.1,0.5,0.1c0.1,0,0.4-0.1,0.6-0.1l0.8-0.2c0.6-0.1,1.1-0.1,1.7,0c0.3,0.1,0.7,0.2,0.9,0.4v0.1h0
				c-0.5,0.2-1,0.3-1.5,0.2c-0.6-0.1-1.1-0.1-1.7,0c-0.5,0.1-0.8,0.3-0.8,0.6c0,0,0,0.1,0,0.1c0.1,0,0.1,0,0.2,0
				c0.1,0,0.2-0.1,0.3-0.1l0.4-0.1c0.4-0.1,0.8-0.2,1.2-0.1c0.3,0,0.7,0.1,1,0.3c0.3,0.2,0.5,0.2,0.8,0.2c0.3,0,0.6-0.2,0.8-0.3l0,0
				c0.3-0.1,0.7-0.2,1-0.1c-0.1-0.1-0.2-0.3-0.3-0.4C27.9,9,27.7,9,27.5,9c0,0,0,0-0.1,0c0,0,0-0.1,0-0.1c0.1-0.3,0-0.7-0.2-0.9
				c-0.2-0.2-0.4-0.4-0.7-0.6c-0.5-0.2-1-0.2-1.5,0c-0.3,0.1-0.6,0.3-0.9,0.4c-0.3,0.2-0.6,0.3-1,0.4c-0.1,0-0.2-0.1-0.2-0.1
				c0-0.1,0-0.2,0-0.3c0.1-0.2,0.3-0.2,0.8-0.4c0.4-0.1,0.8-0.3,1.1-0.6C24.9,6.8,25,6.6,25,6.4c0-0.2-0.1-0.5-0.2-0.7
				c-0.1-0.3-0.3-0.5-0.5-0.8l-0.2-0.3c0,0.2-0.1,0.4-0.3,0.5c0,0,0,0-0.1,0c0,0-0.1,0-0.1-0.1c-0.3-0.7-0.8-1.4-1.3-2l-0.6-0.6
				l-0.4-0.3L21,2.5z"/>
			<path class="st0" d="M12.6,11c-0.1,0.2-0.2,0.4-0.1,0.6l0,0c0,0,0,0,0,0.1s-0.1,0-0.1,0c-0.3-0.1-0.6,0-0.9,0.1
				c-0.3,0.2-0.5,0.4-0.6,0.7c-0.2,0.5-0.2,1,0,1.4c0.1,0.2,0.3,0.6,0.4,0.9c0.2,0.3,0.3,0.6,0.4,1c0,0.1-0.1,0.2-0.1,0.2
				c-0.1,0-0.2,0-0.3,0c-0.2-0.1-0.2-0.3-0.4-0.7c-0.1-0.4-0.3-0.8-0.6-1.1c-0.4-0.2-0.8-0.2-1.2,0c-0.2,0.1-0.5,0.3-0.8,0.5L8.1,15
				c0.2,0,0.4,0.1,0.5,0.3c0,0,0,0,0,0.1l0,0c0,0,0,0.1-0.1,0.1c-0.7,0.3-1.4,0.8-2,1.3L6,17.4l-0.3,0.4L6,18.1l0.6,0.6
				c0.6,0.6,1.3,1,2,1.3c0,0,0.1,0,0.1,0.1l0,0c0,0,0,0,0,0.1c-0.1,0.1-0.3,0.2-0.5,0.3l0.3,0.2c0.3,0.2,0.5,0.3,0.8,0.5
				c0.4,0.2,0.8,0.2,1.2,0c0.3-0.3,0.5-0.7,0.6-1.1c0.1-0.5,0.2-0.6,0.4-0.7c0.1,0,0.2,0,0.3,0c0.1,0,0.1,0.1,0.1,0.2
				c-0.1,0.4-0.2,0.7-0.4,1c-0.2,0.3-0.3,0.7-0.4,0.9c-0.2,0.5-0.2,1,0,1.5c0.1,0.3,0.3,0.5,0.6,0.7c0.3,0.2,0.6,0.2,0.9,0.1
				c0,0,0.1,0,0.1,0s0,0,0,0l0,0c0,0.2,0,0.4,0.1,0.5c0.1,0.1,0.2,0.2,0.4,0.3c0-0.1,0-0.3,0-0.4c0-0.2,0-0.4,0.1-0.6l0,0
				c0.2-0.2,0.3-0.5,0.3-0.8c0-0.1,0-0.1,0-0.2c0-0.2-0.1-0.4-0.2-0.6c-0.2-0.3-0.3-0.6-0.3-1c0-0.1,0-0.1,0-0.2
				c0-0.3,0.1-0.7,0.2-1l0.2-0.4c0.1-0.1,0.1-0.2,0.1-0.3l0,0c0,0,0-0.1,0-0.1c0,0-0.1,0-0.1,0c-0.2,0-0.4,0.3-0.6,0.8
				c-0.1,0.6-0.1,1.1,0,1.7c0.1,0.5,0,1-0.2,1.5v0h-0.1c-0.2-0.3-0.4-0.6-0.4-0.9c-0.1-0.6-0.1-1.1,0-1.7l0.2-0.8
				c0.1-0.2,0.1-0.4,0.1-0.6c0-0.2,0-0.3-0.1-0.5c-0.1-0.1-0.1-0.1-0.2-0.1h-0.5h-0.4l0,0c-0.7,0.1-1.3,0.1-2,0
				c-0.6-0.1-1.2-0.3-1.6-0.8v-0.1c0.4-0.5,1-0.7,1.6-0.8c0.7-0.1,1.4-0.1,2.1,0l0,0h0.4h0.5c0.1,0,0.2,0,0.2-0.1
				c0.1-0.1,0.1-0.3,0.1-0.5c0-0.1-0.1-0.4-0.1-0.6L12,15c-0.1-0.6-0.1-1.1,0-1.7c0.1-0.3,0.2-0.7,0.4-0.9h0.1l0,0
				c0.2,0.5,0.3,1,0.2,1.5c-0.1,0.6-0.1,1.1,0,1.7c0.1,0.5,0.3,0.8,0.6,0.8c0,0,0.1,0,0.1,0c0,0,0-0.1,0-0.1l0,0
				c0-0.1-0.1-0.2-0.1-0.3l-0.2-0.4c-0.1-0.3-0.2-0.7-0.2-1c0-0.1,0-0.1,0-0.2c0-0.4,0.1-0.7,0.3-1c0.1-0.2,0.2-0.4,0.2-0.6
				c0-0.1,0-0.1,0-0.2c0-0.3-0.2-0.6-0.3-0.8l0,0C13,11.6,13,11.4,13,11.2c0-0.1,0-0.3,0-0.4C12.9,10.8,12.7,10.9,12.6,11z"/>
			<path class="st0" d="M29.7,11.1c0,0.2,0,0.4-0.1,0.6l0,0c-0.2,0.3-0.3,0.5-0.3,0.8c0,0.1,0,0.1,0,0.2c0,0.2,0,0.4,0.2,0.6
				c0.2,0.3,0.3,0.6,0.3,1c0,0.1,0,0.1,0,0.2c0,0.3,0,0.7-0.1,1L29.4,16c0,0.1-0.1,0.2-0.1,0.3l0,0c0,0,0,0.1,0,0.1c0,0,0.1,0,0.1,0
				c0.2,0,0.4-0.3,0.5-0.8c0.1-0.6,0.1-1.1,0-1.7c-0.1-0.5,0-1,0.2-1.5l0,0h0c0.2,0.3,0.4,0.6,0.5,0.9c0.1,0.6,0.1,1.1,0,1.7
				l-0.2,0.8c-0.1,0.2-0.1,0.4-0.1,0.6c0,0.2,0,0.3,0.1,0.5c0.1,0.1,0.2,0.1,0.2,0.1h0.5h0.4l0,0c0.7-0.1,1.4-0.1,2,0
				c0.6,0.1,1.2,0.3,1.6,0.8l0,0v0c-0.4,0.5-1,0.7-1.6,0.8c-0.7,0.1-1.4,0.1-2.1,0l0,0h-0.4h-0.5c-0.1,0-0.2,0-0.2,0.1
				c-0.1,0.1-0.1,0.3-0.1,0.5c0,0.2,0.1,0.4,0.1,0.6l0.2,0.8c0.1,0.6,0.1,1.1,0,1.7c-0.1,0.3-0.2,0.7-0.5,0.9h0v0
				c-0.2-0.5-0.3-1-0.2-1.5c0.1-0.6,0.1-1.1,0-1.7c-0.1-0.5-0.3-0.8-0.5-0.8c0,0-0.1,0-0.1,0c0,0,0,0.1,0,0.1l0,0
				c0,0.1,0.1,0.2,0.1,0.3l0.2,0.4c0.1,0.3,0.1,0.7,0.1,1c0,0.1,0,0.1,0,0.2c0,0.3-0.1,0.7-0.3,1c-0.1,0.2-0.2,0.4-0.2,0.6
				c0,0.1,0,0.1,0,0.2c0,0.3,0.2,0.6,0.3,0.8l0,0c0.1,0.2,0.1,0.4,0.1,0.6c0,0.1,0,0.3,0,0.4c0.2-0.1,0.3-0.2,0.4-0.3
				c0.1-0.2,0.2-0.4,0.1-0.5l0,0l0,0c0,0,0.1,0,0.1,0c0.3,0.1,0.6,0,0.9-0.1c0.3-0.2,0.5-0.4,0.6-0.7c0.2-0.5,0.2-1,0-1.5
				c-0.1-0.3-0.3-0.6-0.4-0.9c-0.2-0.3-0.3-0.6-0.4-1c0-0.1,0.1-0.2,0.1-0.2c0.1,0,0.2,0,0.3,0c0.2,0.1,0.2,0.3,0.4,0.7
				c0.1,0.4,0.3,0.8,0.6,1.1c0.4,0.2,0.8,0.2,1.2,0c0.3-0.1,0.5-0.3,0.8-0.5l0.3-0.2c-0.2,0-0.4-0.1-0.5-0.3c0,0,0,0,0-0.1l0,0
				c0,0,0-0.1,0.1-0.1c0.7-0.3,1.4-0.8,2-1.3l0.6-0.6l0.3-0.4l-0.3-0.4l-0.6-0.6c-0.6-0.6-1.3-1-2-1.3c0,0,0,0-0.1,0l0,0
				c0,0,0,0,0-0.1c0.1-0.2,0.3-0.3,0.6-0.4l-0.3-0.2c-0.3-0.2-0.5-0.3-0.8-0.4c-0.4-0.2-0.8-0.2-1.2,0c-0.3,0.3-0.5,0.7-0.6,1.1
				c-0.1,0.5-0.2,0.6-0.4,0.7c-0.1,0-0.2,0-0.3,0c-0.1,0-0.1-0.1-0.1-0.2c0.1-0.4,0.2-0.7,0.4-1c0.2-0.3,0.3-0.6,0.4-0.9
				c0.2-0.5,0.2-1,0-1.4c-0.1-0.3-0.3-0.5-0.6-0.7c-0.3-0.2-0.6-0.2-0.9-0.1c0,0-0.1,0-0.1,0c0,0,0,0,0-0.1l0,0c0,0,0-0.1,0-0.1
				c0-0.1,0-0.3-0.1-0.4c-0.1-0.1-0.3-0.2-0.4-0.3C29.6,10.9,29.6,11,29.7,11.1z"/>
			<path class="st0" d="M25.6,25.8L25.6,25.8c-0.3,0.2-0.6,0.3-1,0.3c-0.4,0-0.8,0-1.1-0.1l-0.4-0.2c-0.1,0-0.2-0.1-0.3-0.1
				c-0.1,0-0.1,0-0.2,0c0,0,0,0.1,0,0.1c0,0.2,0.3,0.5,0.8,0.5c0.6,0.1,1.1,0.1,1.7,0c0.5-0.1,1,0,1.5,0.2h0v0
				c-0.3,0.2-0.6,0.4-0.9,0.5c-0.6,0.1-1.1,0.1-1.7,0l-0.8-0.2c-0.2-0.1-0.4-0.1-0.6-0.1c-0.2,0-0.3,0-0.5,0.1
				c-0.1,0.1-0.1,0.1-0.1,0.2v0.5V28l0,0c0.1,0.7,0.1,1.4,0,2.1c-0.1,0.6-0.3,1.2-0.8,1.6l0,0l0,0c-0.5-0.4-0.8-1-0.8-1.6
				c-0.1-0.7-0.1-1.4,0-2.1l0,0v-0.4v-0.5c0-0.1,0-0.2-0.1-0.2c-0.1-0.1-0.3-0.1-0.5-0.1c-0.2,0-0.4,0.1-0.6,0.1l-0.8,0.2
				c-0.6,0.1-1.1,0.1-1.7,0c-0.3-0.1-0.7-0.2-0.9-0.5v0h0.1c0.3-0.2,0.7-0.2,1.1-0.2c0.2,0,0.5,0,0.7,0.1c0.2,0,0.4,0.1,0.7,0.1
				c0.2,0,0.5,0,0.7-0.1c0.2-0.1,0.3-0.2,0.3-0.4c0-0.1,0-0.1,0-0.1s0,0-0.1,0c-0.2,0.2-0.5,0.2-0.8,0.2c-0.5-0.1-1-0.3-1.5-0.5
				c-0.3-0.2-0.5-0.2-0.8-0.2c-0.3,0-0.6,0.2-0.8,0.3l0,0c-0.3,0.1-0.7,0.2-1,0.1c0.1,0.2,0.2,0.3,0.3,0.4c0.2,0.1,0.4,0.2,0.6,0.1
				c0,0,0.1,0,0.1,0c0,0,0,0.1,0,0.1c-0.1,0.3,0,0.6,0.1,0.9c0.2,0.3,0.4,0.5,0.7,0.6c0.5,0.2,1,0.2,1.4,0c0.3-0.1,0.6-0.3,0.9-0.4
				c0.3-0.2,0.6-0.3,1-0.4c0.1,0,0.2,0.1,0.2,0.1c0,0.1,0,0.1,0,0.2c0,0,0,0.1,0,0.1c-0.1,0.2-0.3,0.2-0.7,0.4
				c-0.4,0.1-0.8,0.3-1.1,0.6C18,28.7,18,28.8,18,29c0,0.2,0.1,0.5,0.2,0.7c0.1,0.2,0.3,0.5,0.5,0.8l0,0.5c0-0.2,0.1-0.4,0.3-0.5
				c0,0,0,0,0.1,0c0,0,0,0,0.1,0.1c0.3,0.7,0.8,1.4,1.3,2l0.6,0.6l0.4,0.3l0.4-0.3l0.6-0.6c0.6-0.6,1-1.3,1.3-2c0,0,0-0.1,0.1-0.1
				c0,0,0,0,0.1,0c0.1,0.1,0.2,0.3,0.3,0.5l0.2-0.3c0.2-0.3,0.3-0.5,0.5-0.8c0.1-0.2,0.2-0.5,0.2-0.7c0-0.2,0-0.4-0.1-0.5
				c-0.3-0.3-0.6-0.5-1-0.6c-0.5-0.1-0.6-0.2-0.8-0.4c0,0,0-0.1,0-0.1c0-0.1,0-0.1,0-0.2c0-0.1,0.1-0.1,0.2-0.1
				c0.4,0.1,0.7,0.2,1,0.4c0.3,0.2,0.6,0.3,0.9,0.4c0.5,0.2,1,0.2,1.5,0c0.3-0.1,0.5-0.3,0.7-0.6c0.2-0.3,0.2-0.6,0.1-0.9
				c0,0,0-0.1,0-0.1c0,0,0,0,0.1,0c0.2,0,0.4,0,0.5-0.1c0.1-0.1,0.2-0.3,0.3-0.4c-0.3,0.1-0.7,0.1-1-0.1l0,0
				c-0.2-0.2-0.5-0.3-0.8-0.3C26.2,25.6,25.9,25.6,25.6,25.8z"/>
			<path class="st0" d="M28.6,9.9c0,0,0,0.1,0,0.1c0,0,0,0.1,0,0.1l0.2,0.2l0.2,0.2c0.1,0.1,0.2,0.1,0.2,0c0.1-0.1,0.1-0.1,0-0.2
				c0,0,0,0,0,0L29,10.1l-0.2-0.2C28.7,9.8,28.6,9.8,28.6,9.9z"/>
			<path class="st0" d="M13.9,9.9l-0.2,0.2l-0.2,0.2c0,0,0,0.1,0,0.1c0,0,0,0.1,0,0.1c0.1,0.1,0.2,0.1,0.2,0l0.2-0.2l0.2-0.2
				c0,0,0-0.1,0-0.1c0,0,0-0.1,0-0.1C14,9.8,14,9.8,13.9,9.9z"/>
			<path class="st0" d="M29,25l-0.2,0.2l-0.2,0.2c0,0,0,0.1,0,0.1c0,0,0,0.1,0,0.1c0.1,0.1,0.1,0.1,0.2,0c0,0,0,0,0,0l0.2-0.2
				l0.2-0.2c0,0,0-0.1,0-0.1c0,0,0-0.1,0-0.1C29.1,25,29.1,25,29,25z"/>
			<path class="st0" d="M13.4,25c0,0,0,0.1,0,0.1c0,0,0,0.1,0,0.1l0.2,0.2l0.2,0.2c0.1,0.1,0.1,0.1,0.2,0c0,0,0,0,0,0
				c0,0,0-0.1,0-0.1c0,0,0-0.1,0-0.1l-0.2-0.2L13.6,25C13.6,25,13.5,25,13.4,25z"/>
			<path class="st0" d="M14.8,16.1v3c0,0.2,0.2,0.4,0.4,0.4h3.3c0.2,0,0.3-0.1,0.3-0.2c0-0.2-0.1-0.3-0.2-0.3c0,0-0.1,0-0.1,0h-2.9
				c-0.2,0-0.3-0.1-0.3-0.3c0-0.2,0.1-0.3,0.3-0.3c0,0,0,0,0,0h2.9c0.2,0,0.3-0.1,0.3-0.3c0-0.2-0.1-0.3-0.3-0.3c0,0,0,0,0,0h-2.9
				c-0.2,0-0.3-0.2-0.2-0.4c0-0.1,0.1-0.2,0.2-0.2h2.9c0.1,0,0.3-0.1,0.3-0.3c0,0,0,0,0,0c0-0.2-0.1-0.3-0.3-0.3l0,0h-2.9
				c-0.1,0-0.2-0.1-0.2-0.2l0,0v-0.2c0-0.2-0.1-0.3-0.3-0.3C15,15.8,14.8,15.9,14.8,16.1C14.8,16.1,14.8,16.1,14.8,16.1z"/>
			<path class="st0" d="M27.5,16.1v0.2c0,0.1-0.1,0.2-0.2,0.2l0,0h-2.9c-0.2,0-0.3,0.1-0.3,0.3c0,0,0,0,0,0c0,0.1,0.1,0.3,0.3,0.3
				c0,0,0,0,0,0h2.9c0.2,0,0.3,0.1,0.3,0.3c0,0.2-0.1,0.3-0.3,0.3h-2.9c-0.2,0-0.3,0.1-0.3,0.3s0.1,0.3,0.3,0.3c0,0,0,0,0,0h2.9
				c0.2,0,0.3,0.1,0.3,0.3s-0.1,0.3-0.3,0.3h-2.9c-0.2,0-0.3,0.1-0.3,0.2c0,0.2,0.1,0.3,0.2,0.3c0,0,0.1,0,0.1,0h3.3
				c0.2,0,0.4-0.2,0.4-0.4v-3c0-0.2-0.1-0.3-0.3-0.3C27.7,15.8,27.5,15.9,27.5,16.1C27.5,16.1,27.5,16.1,27.5,16.1z"/>
			<path class="st0" d="M15.1,20.1c-0.2,0-0.4,0.2-0.4,0.4l0,0V24c0,0.2,0.1,0.3,0.3,0.3l0,0c0.2,0,0.3-0.1,0.3-0.3v-3.1
				c0-0.1,0.1-0.2,0.2-0.2c0,0,0,0,0,0h11.7c0.1,0,0.2,0.1,0.2,0.2V24c0,0.2,0.1,0.3,0.3,0.3c0,0,0,0,0,0c0.2,0,0.3-0.1,0.3-0.3
				v-3.4c0-0.2-0.2-0.4-0.4-0.4c0,0,0,0,0,0H15.1z"/>
			<path class="st0" d="M17.7,21.3c-0.2,0-0.4,0.2-0.4,0.4v1c0,0.2,0.2,0.4,0.4,0.4h3.1c0.1,0,0.2,0.1,0.2,0.2l0,0v0.4
				c0,0.1-0.1,0.2-0.2,0.2l0,0h-4.1c-0.1,0-0.2-0.1-0.2-0.2c0,0,0,0,0,0v-1.9c0-0.2-0.2-0.3-0.3-0.2c-0.1,0-0.2,0.1-0.2,0.2v2.2
				c0,0.2,0.2,0.4,0.3,0.4h0h4.5c0.1,0,0.2,0.1,0.2,0.2l0,0v0.4c0,0.1-0.1,0.2-0.2,0.2l0,0h-2.5c-0.1,0-0.3,0.1-0.3,0.2
				c0,0.1,0.1,0.3,0.2,0.3c0,0,0.1,0,0.1,0h2.9c0.2,0,0.4-0.1,0.4-0.3c0,0,0,0,0,0v-0.8c0-0.1,0.1-0.2,0.2-0.2l0,0h4.6
				c0.2,0,0.4-0.1,0.4-0.3c0,0,0,0,0,0v-2.2c0-0.2-0.1-0.3-0.3-0.3c-0.1,0-0.3,0.1-0.3,0.3c0,0,0,0,0,0v1.9c0,0.1-0.1,0.2-0.2,0.2
				h-4.2c-0.1,0-0.2-0.1-0.2-0.2l0,0v-0.4c0-0.1,0.1-0.2,0.2-0.2l0,0h3.3c0.2,0,0.4-0.2,0.4-0.4v-1c0-0.2-0.2-0.4-0.4-0.4L17.7,21.3
				z M17.9,22.2c0-0.2,0.1-0.3,0.3-0.3h6.3c0.2,0,0.3,0.1,0.3,0.3c0,0.2-0.1,0.3-0.3,0.3l0,0h-6.3C18.1,22.5,17.9,22.3,17.9,22.2
				C17.9,22.2,17.9,22.2,17.9,22.2z"/>
			<path class="st0" d="M21,10.2v0.9c0,0.1-0.1,0.2-0.2,0.2l0,0h-5.7c-0.2,0-0.4,0.2-0.4,0.4v3c0,0.1,0.1,0.3,0.3,0.3c0,0,0,0,0,0
				c0.2,0,0.3-0.1,0.3-0.3V12c0-0.1,0.1-0.2,0.2-0.2c0,0,0,0,0,0h3.3c0.1,0,0.2,0.1,0.2,0.2v2.6c0,0.2,0.1,0.3,0.3,0.3
				c0.1,0,0.3-0.1,0.3-0.3V12c0-0.1,0.1-0.2,0.1-0.2H23c0.1,0,0.2,0.1,0.2,0.2c0,0,0,0,0,0v2.6c0,0.1,0.1,0.3,0.3,0.3c0,0,0,0,0,0
				c0.2,0,0.3-0.1,0.3-0.3V12c0-0.1,0.1-0.2,0.2-0.2h3.4c0.1,0,0.2,0.1,0.2,0.2v2.6c0,0.1,0.1,0.3,0.3,0.3c0,0,0,0,0,0
				c0.2,0,0.3-0.1,0.3-0.3v-3c0-0.2-0.2-0.4-0.4-0.4h-6c-0.1,0-0.2-0.1-0.2-0.2c0,0,0,0,0,0v-0.9c0-0.2-0.2-0.3-0.3-0.2
				C21.1,10,21,10.1,21,10.2L21,10.2z"/>
			<path class="st0" d="M22.7,17.7l-1.3,0.7c0,0-0.9-0.5-1.3-0.7c-0.1,0-0.1,0-0.2,0l0,0c-0.1,0-0.1,0.1-0.1,0.1
				c-0.1,0.1,0,0.3,0.1,0.4l1,0.5l-1,0.5c-0.1,0.1-0.2,0.2-0.1,0.4c0,0.1,0.1,0.1,0.1,0.1c0.1,0,0.1,0,0.2,0l1.3-0.7
				c0,0,0.9,0.5,1.3,0.7c0.1,0.1,0.3,0,0.4-0.1c0-0.1,0-0.1,0-0.2c0-0.1-0.1-0.1-0.1-0.1l-1-0.5l1-0.5c0.1,0,0.1-0.1,0.1-0.1
				c0-0.1,0-0.1,0-0.2C23,17.7,22.8,17.6,22.7,17.7z"/>
			<path class="st0" d="M22.7,15.2l-1.3,0.7c0,0-0.9-0.5-1.3-0.7c-0.1,0-0.1,0-0.2,0l0,0c-0.1,0.1-0.2,0.2-0.1,0.4
				c0,0.1,0.1,0.1,0.1,0.1l1,0.5l-1,0.5c-0.1,0.1-0.2,0.2-0.1,0.4c0,0.1,0.1,0.1,0.1,0.1c0.1,0,0.1,0,0.2,0l1.3-0.7
				c0,0,0.9,0.5,1.3,0.7c0.1,0.1,0.3,0,0.4-0.1c0-0.1,0-0.1,0-0.2c0-0.1-0.1-0.1-0.1-0.2l-1-0.5l1-0.6c0.1,0,0.1-0.1,0.1-0.2
				c0-0.1,0-0.1,0-0.2C23,15.2,22.8,15.2,22.7,15.2C22.7,15.2,22.7,15.2,22.7,15.2z"/>
			<rect x="168.6" y="7" class="st0" width="2" height="30"/>
		</g>
	</g>
	<g>
		<path class="st0" d="M189.7,17.4c2.8-0.9,5.3-2.5,6.1-3.6c0.1-0.2,0.2-0.3,0.3-0.3c0,0,0.1,0,0.1,0c0.2,0.1,1.3,0.5,1.3,0.8
			c0,0.1-0.2,0.2-0.3,0.3c-0.2,0.1-0.4,0.2-0.6,0.3c-1.8,1.7-4,3-6.4,3.8C190.2,18.2,190,17.8,189.7,17.4z M207.5,12.9
			c-2.7-0.1-5.6-0.1-8.5-0.1s-5.8,0-8.4,0.1l0.3-1.5l4.8,0.1c0.3-1.4,0.6-3,0.8-4.4H193l0.3-1.5c1.2,0,2.3,0.1,3.4,0.1
			c0.2-1.5,0.4-2.6,0.4-2.9c0-0.2,0-0.3,0-0.5c0-0.1,0-0.1,0.2-0.1l0,0c1.5,0.1,1.6,0.2,1.6,0.3c-0.1,0.1-0.1,0.3-0.2,0.4
			c-0.1,0.3-0.2,0.6-0.3,0.9c0,0.3-0.2,1-0.4,1.9h2.2h2.2c0.2-1.5,0.4-2.6,0.4-2.9s0-0.4,0-0.5s0.1-0.1,0.2-0.1l0,0
			c1.5,0.1,1.6,0.2,1.6,0.3c-0.1,0.1-0.1,0.3-0.2,0.4c-0.1,0.3-0.2,0.6-0.3,0.9c-0.1,0.3-0.2,1-0.4,1.9c1.1,0,2.3-0.1,3.5-0.1L207,7
			c-1.2,0-2.4,0-3.5-0.1c-0.2,1.3-0.5,3-0.8,4.5c1.7,0,3.4-0.1,5-0.1L207.5,12.9z M201.4,11.5c0.3-1.4,0.6-3,0.8-4.5h-1.3
			c-1,0-2.1,0-3.1,0c-0.2,1.3-0.5,3-0.8,4.5L201.4,11.5z M201.4,13.5c1.4,1.7,3.2,3.1,5.3,3.9c-0.4,0.4-0.8,0.8-1.1,1.3
			c-2.1-1-4-2.5-5.4-4.4L201.4,13.5z"/>
		<path class="st0" d="M211.5,12.7c-0.6,2-1.6,3.9-3.1,5.4c-0.1-0.5-0.4-0.9-0.7-1.2c1.7-1.8,2.8-4,3.1-6.4l0.5-3.1h8l-0.9,5.2
			L211.5,12.7z M217.3,6.7c-0.6-0.1-1.2-0.1-1.8-0.1c-0.6,0-1.3,0-1.9,0.1l0.2-1c-1.1,0.8-2.3,1.5-3.5,2.1c-0.2-0.5-0.4-0.9-0.7-1.3
			c2.2-0.8,4.2-2.1,5.8-3.9c0.2-0.3,0.1-0.4,0.3-0.4l0,0c1.5,0.2,1.6,0.3,1.6,0.4c0,0.1-0.1,0.2-0.2,0.2c-0.1,0-0.1,0.1-0.2,0.1
			c1,1.3,2.4,2.3,4.1,2.7c-0.4,0.4-0.8,0.8-1,1.3c-0.8-0.4-1.6-0.9-2.4-1.4L217.3,6.7z M216.2,18.5c0.1-0.3,0.1-0.6,0.2-0.9h-4.5
			c-0.1,0.3-0.1,0.7-0.2,1.1h-1.4c0.4-1.5,0.7-3.4,0.9-4.4l0.1-0.6h7l-0.1,0.6c-0.2,0.9-0.5,2.7-0.7,4.2H216.2z M217.5,10.5H212
			c-0.1,0.3-0.1,0.8-0.2,1.1h5.5L217.5,10.5z M216.9,14.8h-4.6l-0.3,1.7h4.5c0.1-0.5,0.2-0.9,0.2-1.2L216.9,14.8z M217.9,8.6h-5.5
			l-0.2,1h5.5L217.9,8.6z M216,3.9c-0.6,0.6-1.2,1.1-1.9,1.6c0.6,0.1,1.1,0.1,1.7,0.1c0.6,0,1.1,0,1.7-0.1
			C216.9,5,216.4,4.5,216,3.9L216,3.9z M223.8,16.5c-0.3,1.8-1.2,2.2-3.2,2.2c-0.3,0-0.6,0-0.9,0c0-0.5-0.1-1-0.2-1.5
			c0.5,0,1,0.1,1.4,0.1c1.2,0,1.4-0.3,1.5-1.1c0.3-1.8,0.9-4.6,1.3-7.2c0.5-3,1-5.7,0.9-6.2c0-0.2,0-0.3-0.1-0.5
			c0-0.1,0.1-0.1,0.2-0.1l0,0c1.7,0.1,1.7,0.3,1.7,0.4c0,0.1-0.1,0.3-0.2,0.4c-0.2,0.3-0.3,0.6-1.7,8.4
			C224.3,13.2,224,15,223.8,16.5L223.8,16.5z M219.5,14.7c0.4-1.9,0.9-4.3,1.2-6.4s0.6-3.8,0.6-4.1s0-0.4,0-0.5s0.1-0.1,0.2-0.1l0,0
			c1.5,0.1,1.5,0.3,1.5,0.4c0,0.1-0.1,0.3-0.2,0.4c-0.1,0.2-0.2,0.4-0.2,0.7v0.2c-0.1,0.5-0.4,1.9-0.7,3.7s-0.7,3.9-0.9,5.8H219.5z"
			/>
		<path class="st0" d="M242.2,18.1c-2.7-0.1-5.5-0.1-8.3-0.1s-5.6,0-8.2,0.1l0.3-1.5c2.4,0.1,4.9,0.1,7.4,0.1l0.4-2.1
			c-1.9,0-3.8,0-5.6,0.1l0.2-1.4c1.8,0.1,3.6,0.1,5.5,0.1c0.1-0.5,0.2-1.1,0.1-1.6h-1.4c0.3-1.1,0.5-2.6,0.8-3.9h-2.3
			c-0.6,1.9-1.8,3.5-3.5,4.6c-0.2-0.4-0.5-0.8-0.8-1.1c1.4-0.8,2.4-2,3-3.5c-0.8,0-1.6,0-2.5,0.1l0.2-1.3l1.3,0.1h1.3
			c0.2-0.8,0.4-1.6,0.5-2.6h-2l0.2-1.3c1.5,0.1,2.9,0.1,4.3,0.1s2.9,0,4.5-0.1l-0.2,1.3c-0.7,0-1.4,0-2,0L235,6.7
			c0.8,0,1.7-0.1,2.6-0.1L237.3,8c-0.9,0-1.7-0.1-2.5-0.1c-0.2,1.2-0.4,2.5-0.6,3.6c0.2,0,1,0.1,1.5,0.2c0.1,0,0.2,0.1,0.1,0.2
			c0,0.1-0.1,0.2-0.2,0.4c-0.2,0.4-0.3,0.8-0.4,1.3c2,0,3.9,0,5.8-0.1l-0.2,1.4c-1.9-0.1-3.8-0.1-5.8-0.1c-0.1,0.7-0.2,1.4-0.4,2.1
			c2.6,0,5.2-0.1,7.7-0.1L242.2,18.1z M234.2,4.1H232c-0.2,1-0.3,1.9-0.5,2.7h2.2L234.2,4.1z M237.7,9.9c0.2-0.9,0.5-2.2,0.7-3.5
			c0.2-0.9,0.3-1.8,0.4-2.7c0-0.3,0-0.4,0-0.5s0.1-0.1,0.1-0.1h0.1c1.3,0.1,1.5,0.2,1.5,0.3c0,0.1-0.1,0.2-0.2,0.3
			c-0.1,0.2-0.2,0.5-0.2,0.7c-0.1,0.4-0.2,1.2-0.4,2.1c-0.2,1.1-0.4,2.3-0.5,3.2H237.7z M242.2,10.6c-0.3,1.5-0.9,2-2.8,2
			c-0.2,0-0.5,0-0.8,0c0.1-0.5,0-1-0.1-1.4c0.5,0,0.9,0.1,1.2,0.1c0.9,0,1-0.2,1.1-0.8c0.1-0.6,0.3-1.6,0.5-2.8
			c0.4-2,0.7-4.3,0.7-4.8c0-0.2,0-0.4,0-0.5s0.1-0.1,0.2-0.1h0.1c1.6,0.1,1.6,0.2,1.5,0.3c0,0.1-0.1,0.2-0.2,0.3
			c-0.2,0.3-0.2,0.3-0.8,3.8C242.7,8.2,242.4,9.8,242.2,10.6L242.2,10.6z"/>
		<path class="st0" d="M259.6,12.7h-0.8c-0.9,3.6-1.8,4.7-4.2,6c0-0.4-0.2-0.8-0.4-1.1c-2.3,0-4.6,0-5.7,0c-0.1,0.4-0.1,0.8-0.2,1.1
			H247c0.5-2.5,1.1-5.5,1.3-7.1c-0.4,0.4-0.8,0.8-1.2,1.1c-0.1-0.4-0.3-0.8-0.5-1.2c1.4-1.2,2.6-2.6,3.6-4.2c-0.9,0-1.8,0-2.7,0.1
			l0.2-1.3c1.1,0.1,2.1,0.1,3,0.1c0.3-0.5,0.5-1,0.7-1.5h-1.2c-0.4,0.5-0.9,1-1.4,1.4c-0.1-0.4-0.4-0.7-0.7-0.9
			c0.9-0.6,1.7-1.4,2.2-2.4c0.2-0.3,0.1-0.5,0.3-0.5h0.1c0.4,0.1,0.8,0.2,1.1,0.3c0.1,0,0.1,0.1,0.1,0.2c0,0.1-0.1,0.2-0.2,0.2
			c-0.2,0.2-0.4,0.4-0.6,0.6h1.8c1.3,0,2.9,0,4.3-0.1L257,4.7c-1.3-0.1-2.9-0.1-4.2-0.1c-0.2,0.5-0.4,1-0.7,1.5c1.6,0,3.2,0,5.1-0.1
			L257,7.4c-1.7,0-3.1-0.1-4.6-0.1h-0.9c-0.3,0.6-0.7,1.1-1.1,1.7h2c0.2-0.3,0.3-0.7,0.5-1c0.1-0.4,0.1-0.6,0.2-0.6l0,0
			c0.4,0.1,0.8,0.2,1.2,0.3c0.1,0,0.2,0.1,0.1,0.2s-0.1,0.2-0.2,0.3c-0.3,0.2-0.5,0.5-0.6,0.8c0.8,0,1.8,0,2.7-0.1l-0.2,1.2
			l-2.9-0.1l-0.2,1.3l2.6-0.1l-0.2,1.1l-2.6-0.1l-0.2,1.4l2.6-0.1l-0.2,1.1l-2.6-0.1l-0.2,1.6l2.8-0.1l-0.1,0.9
			c1.5-0.8,2.1-1.9,2.8-4.5h-1l1.7-9.8h5.6l-1.7,9.8h-1.4l-0.7,4c-0.1,0.4,0,0.4,0.2,0.5h0.3c0.6,0,0.7-0.1,1.3-2.2
			c0.3,0.3,0.6,0.5,1,0.6c-0.8,2.4-0.9,2.7-2.6,2.7c-1.3,0-1.7-0.3-1.5-1.5L259.6,12.7z M251.3,14.8h-2.3c-0.1,0.5-0.2,1.1-0.3,1.6
			h2.3L251.3,14.8z M251.7,12.4h-2.4c-0.1,0.4-0.1,0.9-0.2,1.4h2.3L251.7,12.4z M252.1,10h-2.3l-0.2,1.4h2.3L252.1,10z M261.4,9.6
			h-3.1l-0.3,1.9h3.1L261.4,9.6z M261.9,6.7h-3.1l-0.3,1.8h3.1L261.9,6.7z M262.4,4h-3.1l-0.3,1.5h3.1L262.4,4z"/>
		<path class="st0" d="M274,10.1h-2.7c-1,4.3-2.6,7.2-7.6,8.6c0-0.5-0.2-1-0.5-1.5c4.5-1.1,5.8-3.4,6.6-7.1c-1.6,0-3.2,0.1-4.9,0.1
			l0.3-1.6c2.5,0.1,4.8,0.1,7.1,0.1c0.2-0.9,0.4-2,0.5-3c0.2-1,0.4-2,0.4-3c0-0.2,0-0.4,0-0.5s0.1-0.1,0.2-0.1h0.1
			c1.7,0.1,1.7,0.2,1.7,0.3c0,0.1-0.1,0.3-0.2,0.4c-0.1,0.2-0.2,0.4-0.3,0.7l-0.3,1.1c-0.2,1.1-0.5,2.7-0.7,4.1c2.4,0,4.8,0,7.4-0.1
			l-0.3,1.6c-1.9-0.1-3.7-0.1-5.5-0.1l-1,5.6c-0.1,0.8,0.1,1,1.9,1c2,0,2.2-0.1,3.1-3.8c0.4,0.3,0.8,0.6,1.3,0.8
			c-1.4,4.4-1.8,4.4-4.7,4.4c-0.5,0-1,0-1.5,0c-0.9,0-1.6-0.7-1.6-1.5c0-0.2,0-0.4,0.1-0.6L274,10.1z M269.5,8.2
			c-0.6-1.6-1.4-3-2.5-4.3l1.3-0.8c1.1,1.3,2,2.7,2.7,4.2L269.5,8.2z M279,3.4c0.1-0.3,0.2-0.5,0.3-0.5c0,0,0.1,0,0.1,0
			c1.4,0.5,1.4,0.6,1.4,0.7c0,0.1-0.1,0.2-0.3,0.3c-0.2,0.1-0.4,0.3-0.6,0.5c-1.1,1.4-2.2,2.7-3.6,3.9c-0.2-0.4-0.6-0.7-0.9-1
			C276.9,6.3,278.1,5,279,3.4L279,3.4z"/>
		<path class="st0" d="M299.1,8.4c-2.9-0.1-6.2-0.1-9.5-0.1h-3.8l-0.4,2c-0.7,4.1-1.6,6.1-3.6,8.4c-0.2-0.4-0.5-0.7-0.9-1
			c1.6-1.8,2.5-3.7,3.1-7.4l0.6-3.2h4.4c-0.2-0.7-0.4-1.3-0.8-1.9l1.3-0.4c0.4,0.7,0.7,1.5,0.9,2.3h2.4c0.6-0.5,1-1.2,1.3-1.9
			c0.1-0.3,0.2-0.4,0.3-0.4c0,0,0.1,0,0.1,0c0.4,0.1,0.8,0.2,1.1,0.3c0.1,0,0.2,0.1,0.1,0.2c0,0.1-0.1,0.2-0.2,0.3
			c-0.2,0.1-0.3,0.3-0.5,0.5c-0.3,0.4-0.5,0.7-0.8,1c1.7,0,3.4-0.1,5-0.1L299.1,8.4z M297.8,18.1c-2,0-5-0.1-7.8-0.1
			c-2.3,0-4.5,0-6.1,0.1l0.2-1.4c1.6,0.1,3.6,0.1,5.9,0.1c0.1-0.7,0.3-1.5,0.4-2.1c-1.1,0-2.3,0-3.5,0.1l0.2-1.4
			c1.2,0.1,2.3,0.1,3.5,0.1c0.1-0.6,0.2-1.2,0.3-1.8h-3.2c-0.6,0.8-1.3,1.6-2,2.3c-0.2-0.4-0.5-0.7-0.8-1c1.2-0.9,2.2-2.2,2.8-3.6
			c0.2-0.5,0.2-0.6,0.3-0.6c0,0,0.1,0,0.1,0c0.4,0.1,0.9,0.2,1.2,0.3c0.1,0,0.2,0.1,0.1,0.2c0,0,0,0,0,0c0,0.1-0.1,0.2-0.2,0.3
			c-0.3,0.3-0.6,0.6-0.7,1h2.7c0.1-0.5,0.1-1,0.1-1.5c0-0.2,0-0.3,0-0.5c0-0.1,0.1-0.1,0.2-0.1l0,0c0.5,0,1,0.1,1.5,0.2
			c0.1,0,0.2,0.1,0.1,0.2c0,0.1-0.1,0.2-0.2,0.3c-0.2,0.4-0.4,0.9-0.4,1.3c1.8,0,3.9,0,5.1-0.1l-0.2,1.3c-1.3,0-3.3-0.1-5.1-0.1
			l-0.3,1.7c1.3,0,2.9-0.1,4.3-0.1l-0.2,1.3c-1.4-0.1-3-0.1-4.3-0.1l-0.4,2.1c2.3,0,4.9,0,6.6-0.1L297.8,18.1z M298.7,4.9
			c-2-0.1-4.2-0.1-6.3-0.1s-4.4,0-6.5,0.1l0.3-1.4c1.8,0.1,3.5,0.1,5.4,0.2c0.1-0.3,0.1-0.6,0.1-0.8c0-0.2,0-0.3,0-0.5
			c0,0,0.1-0.1,0.2-0.1h0.1c1.4,0.1,1.6,0.2,1.6,0.3c0,0.1-0.1,0.3-0.2,0.4c-0.1,0.2-0.2,0.5-0.3,0.7c2,0,4.1-0.1,6-0.2L298.7,4.9z"
			/>
		<path class="st0" d="M315.8,14.1c-2,0-4-0.1-6-0.1c1.3,1.3,3.2,2,6.1,2.5c-0.5,0.4-0.9,0.9-1.2,1.4c-2.9-0.7-5-1.8-6.4-3.7
			c-0.3,1.6-0.5,3.2-0.7,4.5h-1.4c0.3-1.3,0.6-2.9,0.9-4.5c-2.1,1.9-4.7,3.1-7.5,3.7c-0.1-0.5-0.3-0.9-0.6-1.3
			c2.4-0.3,4.7-1.2,6.7-2.6l-5.7,0.1l0.2-1.3c2.3,0.1,4.8,0.1,7.1,0.1l0.2-1.2c-1.8,0-3.6,0-5.1,0.1l0.2-1.2c0.8,0,1.6,0,2.5,0.1
			h2.6l0.2-1.1c-2,0-4,0-6.3,0.1l0.2-1.3c1.5,0.1,3,0.1,4.3,0.1c-0.3-0.5-0.7-0.9-1.1-1.3l1.2-0.5c0.5,0.5,0.9,1.1,1.3,1.8
			c0.8,0,1.6,0,2.4,0c0.5-0.4,0.9-0.9,1.2-1.4c0.2-0.3,0.2-0.4,0.3-0.4h0.1c0.4,0.1,0.7,0.2,1.1,0.3c0.1,0,0.1,0.1,0.1,0.2
			s-0.1,0.2-0.2,0.2c-0.2,0.1-0.4,0.3-0.5,0.4c-0.2,0.2-0.5,0.5-0.6,0.6c1.4,0,2.9-0.1,4.6-0.1l-0.2,1.3c-2.4-0.1-4.5-0.1-6.5-0.1
			l-0.2,1.1c1.8,0,3.8,0,5.4-0.1l-0.2,1.2c-1.7-0.1-3.6-0.1-5.4-0.1l-0.2,1.2c2.4,0,5-0.1,7.4-0.1L315.8,14.1z M317.2,6.8
			c-2.7-0.1-5.3-0.1-8-0.1s-5.2,0-7.9,0.1l0.2-1.4l2.8,0.1h2.8c0.1-0.4,0.2-0.8,0.2-1.2c0.1-0.5,0.2-1,0.2-1.5c0-0.2,0-0.4,0-0.5
			s0.1-0.1,0.2-0.1h0.1c1.4,0.1,1.5,0.2,1.4,0.3c0,0.1-0.1,0.2-0.2,0.3c-0.2,0.6-0.4,1.2-0.5,1.8c0,0.3-0.1,0.6-0.1,0.9h1.7
			c0.1-0.4,0.2-0.8,0.2-1.2c0.1-0.5,0.2-1,0.2-1.5c0-0.2,0-0.4,0-0.5s0.1-0.1,0.2-0.1h0.1c1.4,0.1,1.5,0.2,1.4,0.3
			c0,0.1-0.1,0.2-0.2,0.3c-0.2,0.6-0.4,1.2-0.5,1.8c0,0.3-0.1,0.5-0.1,0.8c1.9,0,3.9-0.1,5.9-0.1L317.2,6.8z M304.9,5.5
			c-0.3-0.9-0.8-1.7-1.4-2.4l1.1-0.5c0.7,0.7,1.2,1.5,1.6,2.4L304.9,5.5z M314.6,2.9c0.2-0.3,0.2-0.4,0.3-0.4h0.1
			c0.8,0.1,1.3,0.3,1.2,0.5c0,0.1-0.1,0.2-0.2,0.3c-0.2,0.1-0.4,0.3-0.6,0.5c-0.5,0.6-1,1.2-1.6,1.7c-0.3-0.2-0.7-0.4-1-0.5
			C313.5,4.4,314.1,3.7,314.6,2.9L314.6,2.9z"/>
		<path class="st0" d="M203.8,35.8l-6.4-0.1c0.3,0.9,0.7,1.7,1.4,2.4c1-0.4,1.8-1.1,2.6-1.8c0.1-0.1,0.1-0.2,0.2-0.2
			s1.4,0.7,1.3,0.9s-0.1,0.1-0.2,0.2c-0.2,0.1-0.4,0.1-0.6,0.3c-0.7,0.5-1.5,0.9-2.4,1.5c1.2,0.8,2.6,1.3,4,1.5
			c-0.4,0.4-0.7,0.9-1,1.4c-3.7-1-5.6-2.4-6.7-6h-2.3l-0.7,3.7c1.2-0.2,2.5-0.5,3.7-0.8l-0.2,1.3c-2.2,0.5-4.2,0.9-5.8,1.2
			c-0.3,0.1-0.6,0.2-0.8,0.3c-0.1,0.1-0.2,0.2-0.4,0.2c-0.2,0-0.6-1.4-0.5-1.7c0-0.1,0.1-0.1,0.4-0.1s1.2-0.1,2.1-0.2l0.7-4h-2.5
			c-0.7,2.2-1.7,4.2-3.2,6c-0.2-0.5-0.5-0.9-0.8-1.3c2.1-2.4,2.9-5.4,3.7-9.6l1-5.6h14.3l-0.8,4.2h-12.8l-0.3,1.5
			c-0.2,1.2-0.5,2.4-0.8,3.6h3.7c0.1-0.7,0.3-1.3,0.4-2l-3.1,0.1l0.2-1.3c0.9,0,2.1,0.1,3,0.1c0.1-0.4,0.1-0.8,0.1-1.2
			c0-0.2,0-0.3,0-0.5c0-0.1,0.1-0.1,0.2-0.1l0,0c1.6,0.1,1.6,0.3,1.6,0.4c-0.1,0.1-0.1,0.3-0.2,0.4c-0.1,0.2-0.2,0.4-0.2,0.6
			l-0.1,0.5h3.3c0.1-0.4,0.1-0.8,0.1-1.2c0-0.2,0-0.3,0-0.5c0-0.1,0.1-0.1,0.2-0.1l0,0c1.6,0.1,1.6,0.3,1.6,0.4
			c-0.1,0.1-0.1,0.3-0.2,0.4c-0.1,0.2-0.2,0.4-0.2,0.6l-0.1,0.4c1.1,0,2.3-0.1,3.5-0.1l-0.3,1.4c-1.1,0-2.4-0.1-3.5-0.1
			c-0.1,0.4-0.2,0.9-0.3,1.4l-0.1,0.6c1.6,0,3.1,0,4.3-0.1L203.8,35.8z M203,26.5h-11.4l-0.3,1.7h11.4L203,26.5z M198.4,34.5
			c0.1-0.7,0.3-1.3,0.4-2c-1.1,0-2.3,0-3.4,0l-0.4,2H198.4z"/>
		<path class="st0" d="M206.7,41.8c0.8-3.8,1.9-9.9,2.5-13.5l0.5-3h6.8l-1,6h-5.4l-0.1,0.8c-0.3,1.8-1.1,6.3-1.6,9.7L206.7,41.8z
			 M215.9,40.7c0.3-1.2,0.6-2.6,0.8-3.9h-2.5c-0.6,1.7-1.8,3.1-3.4,4c-0.2-0.4-0.5-0.8-0.8-1.2c1.3-0.4,2.4-1.4,2.9-2.8
			c-0.8,0-1.8,0-2.6,0.1l0.2-1.4l1.4,0.1h1.4c0.1-0.4,0.2-0.8,0.3-1.3c0-0.2,0.1-0.5,0.1-0.8c-0.6,0-1.3,0-2,0.1l0.2-1.4
			c1.6,0.1,2.9,0.1,4.4,0.1s2.9,0,4.6-0.1l-0.2,1.5c-0.7,0-1.3-0.1-2-0.1l-0.4,2c0.9,0,1.8-0.1,2.7-0.1l-0.2,1.4
			c-0.9,0-1.8-0.1-2.6-0.1c-0.2,1.3-0.4,2.7-0.6,3.9L215.9,40.7z M214.5,28.7h-4l-0.2,1.4h4L214.5,28.7z M214.9,26.4h-4l-0.2,1.3h4
			L214.9,26.4z M217.2,33.5h-2.4c-0.2,0.9-0.2,1.4-0.4,2.1h2.4L217.2,33.5z M218.2,41.8c0-0.5,0-1.1-0.3-1.6c0.6,0,1.1,0.1,1.5,0.1
			c1.2,0,1.6-0.3,1.7-1.2l1.4-7.9H217l1.1-6h7l-2.5,14.1c-0.4,2.2-1.8,2.4-4,2.4L218.2,41.8z M223,28.8h-4.2l-0.2,1.4h4.2L223,28.8z
			 M223.5,26.4h-4.2l-0.2,1.3h4.2L223.5,26.4z"/>
		<path class="st0" d="M228.1,28.1c0.7,0,1.7,0.1,3,0.1c2.8,0,6.5-0.1,9.1-0.2c0.3,0,0.4-0.2,0.6-0.2s1.6,1.1,1.5,1.3
			s-0.5,0.3-0.9,1.1c-2.7,5.1-7.1,9.2-12.5,11.4c-0.4-0.5-0.8-0.9-1.3-1.4c5.4-1.6,10.6-6.7,12.1-10.6c-2.9,0.1-9.6,0.2-11.9,0.5
			L228.1,28.1z M243.2,27.7c-0.8,0-1.5-0.6-1.5-1.4c0-0.1,0-0.3,0-0.4c0.2-1,1.1-1.8,2.1-1.8c0.8,0,1.5,0.6,1.5,1.4
			c0,0.1,0,0.3,0,0.4C245.1,27,244.2,27.7,243.2,27.7z M243.7,24.9c-0.6,0-1,0.4-1.1,1c-0.1,0.4,0.1,0.9,0.6,1c0.1,0,0.1,0,0.2,0
			c0.6,0,1-0.4,1.1-1c0.1-0.4-0.1-0.9-0.6-1C243.8,24.9,243.7,24.9,243.7,24.9L243.7,24.9z"/>
		<path class="st0" d="M255.6,39.7c0-0.2,0.1-0.4,0.2-0.7h-1.4c-2.3,0-5.1,0-7.2,0.1c-0.1,0.3-0.1,0.5-0.1,0.8h-1.8
			c0.4-1.5,1.1-5.1,1.6-8.1c0.3-1.7,0.5-3.2,0.7-4c0.9,0,2.2,0,3.6,0c3,0,6.5-0.1,8.4-0.1c-0.3,1.2-0.7,3.3-1.1,5.5
			c-0.5,2.7-0.9,5.6-1,6.6L255.6,39.7z M248.9,37.5c2.3,0,5.2,0,7.2-0.1c0.1-0.7,0.3-1.6,0.5-2.7c0.4-2,0.8-4.4,1-5.7l-8.6,0.1
			c-0.2,1.1-0.6,2.8-0.9,4.6c-0.2,1.3-0.4,2.6-0.6,3.7L248.9,37.5z"/>
		<path class="st0" d="M261.9,40.2c6-1.7,10.9-6.4,12.8-10.3c-2.4,0.1-4.7,0.1-6.1,0.2c-1.6,1.7-3.5,3.2-5.4,4.5
			c-0.4-0.4-0.8-0.8-1.3-1.1c3.2-1.8,6.4-4.8,7.7-7.3c0.2-0.4,0.1-0.7,0.3-0.7c0,0,0.1,0,0.1,0c0.6,0.2,1.3,0.4,1.7,0.6
			c0.2,0.1,0.3,0.1,0.3,0.2s-0.1,0.2-0.3,0.3c-0.3,0.1-0.6,0.4-0.8,0.7c-0.3,0.4-0.6,0.8-0.9,1.2c1.5,0,3.8-0.1,5.2-0.2
			c0.5,0,0.5-0.2,0.6-0.2c0.6,0.3,1.1,0.8,1.5,1.3c0,0.2-0.5,0.4-0.9,1c-3,5.2-7.6,9.1-13.2,11.2C262.8,41.1,262.3,40.6,261.9,40.2z
			 M277.8,28.2c-0.4-0.6-0.9-1.2-1.5-1.8l0.9-0.7c0.6,0.5,1.1,1,1.6,1.6L277.8,28.2z M279.4,27.1c-0.5-0.6-1-1.2-1.5-1.7l0.9-0.7
			c0.6,0.5,1.1,1,1.6,1.6L279.4,27.1z"/>
		<path class="st0" d="M280.6,30.3c0.5,0,1.4,0.1,2.5,0.1c3.3,0,8.4-0.1,9.9-0.2c0.3,0,0.4-0.2,0.6-0.2c0.6,0.3,1.2,0.7,1.7,1.3
			c0,0.2-0.5,0.3-0.9,1c-2.7,4.4-6.8,7.6-11.7,9.2c-0.4-0.5-0.8-1-1.2-1.5c5.3-1.4,9.3-4.6,11.2-8.2c-2.9,0-10.2,0.2-12.2,0.4
			L280.6,30.3z M293.3,27.8c-0.5,0-1.5-0.1-2.6-0.1c-2.7,0-6.5,0.1-7.8,0.2l0.3-1.7c0.5,0,1.4,0,2.4,0c2.8,0,6.7-0.1,8.1-0.2
			L293.3,27.8z"/>
		<path class="st0" d="M310.2,40.4c-0.2-0.7-0.5-1.3-0.9-2.1c-3.9,0.5-8.2,1-11.9,1.5c-0.4,0-0.9,0.1-1.3,0.4
			c-0.1,0.1-0.2,0.1-0.3,0.2c-0.2-0.7-0.2-1.4-0.2-2.1v-0.1c0-0.1,0-0.1,0.1-0.1s0.2,0,0.5,0h0.1l2.3-0.2c3-4.8,6.1-10.7,6.2-11.8
			c0-0.2,0-0.2,0.1-0.2c0,0,0.1,0,0.1,0c2,0.6,2.2,0.6,2.1,0.8c-0.1,0.1-0.2,0.2-0.3,0.3c-0.2,0.2-0.4,0.4-0.6,0.6
			c-1.3,2.1-3.8,6.6-5.9,10.1c2.7-0.2,5.9-0.6,8.4-0.9c-0.6-1.2-1.2-2.3-1.9-3.4l1.6-0.6c1.4,2.1,2.6,4.3,3.6,6.5L310.2,40.4z"/>
	</g>
</g>
</svg>
